<svg id="svg" version="1.1" width="400" height="400" viewBox="0 0 400 400" xmlns="http://www.w3.org/2000/svg" xmlns:xlink="http://www.w3.org/1999/xlink" ><g id="svgg"><path id="path0" d="M181.250 8.203 C 181.250 8.693,181.665 8.693,182.422 8.203 C 182.896 7.897,182.840 7.823,182.129 7.818 C 181.646 7.815,181.250 7.988,181.250 8.203 M188.775 8.093 C 189.369 8.183,190.248 8.180,190.728 8.087 C 191.208 7.995,190.723 7.921,189.648 7.924 C 188.574 7.927,188.181 8.003,188.775 8.093 M207.134 8.093 C 207.728 8.183,208.607 8.180,209.087 8.087 C 209.568 7.995,209.082 7.921,208.008 7.924 C 206.934 7.927,206.541 8.003,207.134 8.093 M190.625 55.323 C 136.753 58.038,89.242 91.458,65.848 143.094 C 52.510 172.532,50.756 211.718,61.341 243.750 C 77.178 291.676,119.207 330.040,166.602 339.833 C 182.779 343.175,197.000 344.104,211.523 342.768 C 219.762 342.011,222.516 341.597,231.055 339.833 C 285.624 328.558,331.233 280.587,340.975 224.219 C 344.131 205.959,343.441 183.229,339.208 166.016 C 322.425 97.762,260.716 51.790,190.625 55.323 M336.328 66.120 C 336.328 66.197,336.867 66.776,337.525 67.407 C 338.183 68.037,338.615 68.290,338.485 67.968 C 338.272 67.443,336.328 65.777,336.328 66.120 M57.496 69.937 C 57.025 70.375,56.641 70.845,56.641 70.982 C 56.641 71.118,57.080 70.817,57.617 70.313 C 58.533 69.452,58.760 69.141,58.472 69.141 C 58.405 69.141,57.966 69.499,57.496 69.937 M34.375 100.680 C 34.375 101.079,34.167 101.614,33.913 101.868 C 33.659 102.123,33.536 102.416,33.640 102.521 C 33.745 102.625,34.131 102.201,34.499 101.577 C 34.923 100.860,35.023 100.354,34.772 100.199 C 34.554 100.064,34.375 100.281,34.375 100.680 M367.996 109.254 C 367.981 109.725,368.145 110.219,368.359 110.352 C 368.821 110.637,368.821 110.255,368.359 109.180 C 368.036 108.426,368.023 108.429,367.996 109.254 M371.947 117.384 C 372.192 117.922,372.445 118.310,372.509 118.246 C 372.747 118.009,372.162 116.406,371.838 116.406 C 371.653 116.406,371.702 116.846,371.947 117.384 M219.141 129.068 C 269.280 137.204,304.043 177.900,304.092 228.516 C 304.155 294.133,244.201 341.706,181.029 326.166 C 147.628 317.949,119.081 290.871,109.790 258.594 C 109.512 257.627,109.137 256.396,108.958 255.859 C 106.944 249.841,105.469 238.177,105.469 228.278 C 105.469 176.265,144.740 133.157,196.484 128.370 C 200.325 128.015,215.537 128.483,219.141 129.068 M141.602 170.561 C 141.172 170.647,139.766 170.921,138.477 171.168 C 118.514 175.002,109.155 199.627,121.233 216.542 C 138.230 240.345,175.694 226.005,172.993 196.729 C 171.534 180.921,155.696 167.718,141.602 170.561 M389.696 182.715 C 390.064 184.248,390.234 184.300,390.234 182.878 C 390.234 182.197,390.055 181.641,389.836 181.641 C 389.600 181.641,389.543 182.077,389.696 182.715 M7.528 190.234 C 7.528 191.201,7.604 191.597,7.698 191.113 C 7.791 190.630,7.791 189.839,7.698 189.355 C 7.604 188.872,7.528 189.268,7.528 190.234 M7.539 208.203 C 7.539 209.385,7.612 209.868,7.702 209.277 C 7.791 208.687,7.791 207.720,7.702 207.129 C 7.612 206.538,7.539 207.021,7.539 208.203 M389.748 215.430 C 389.645 215.967,389.713 216.406,389.898 216.406 C 390.083 216.406,390.234 215.967,390.234 215.430 C 390.234 214.893,390.167 214.453,390.085 214.453 C 390.002 214.453,389.851 214.893,389.748 215.430 M253.297 263.647 C 241.883 266.380,237.880 281.668,246.357 290.155 C 254.118 297.927,267.974 294.983,271.849 284.739 C 276.478 272.506,266.010 260.604,253.297 263.647 M377.725 267.799 C 377.243 269.067,377.247 269.141,377.799 269.141 C 378.050 269.141,378.149 269.035,378.020 268.905 C 377.890 268.776,377.944 268.248,378.140 267.733 C 378.336 267.218,378.408 266.797,378.301 266.797 C 378.194 266.797,377.934 267.248,377.725 267.799 M369.713 285.573 C 369.372 286.232,369.178 286.980,369.281 287.234 C 369.385 287.488,369.483 287.388,369.500 287.012 C 369.517 286.636,369.687 286.328,369.876 286.328 C 370.066 286.328,370.305 285.889,370.408 285.352 C 370.655 284.059,370.465 284.120,369.713 285.573 M230.218 292.614 C 229.542 292.809,228.113 293.758,227.040 294.723 C 217.907 302.934,227.094 317.356,238.108 312.099 C 249.900 306.471,242.811 288.965,230.218 292.614 M58.203 328.962 C 58.203 329.294,61.002 332.097,61.167 331.932 C 61.248 331.851,60.614 331.102,59.758 330.266 C 58.903 329.431,58.203 328.844,58.203 328.962 M67.853 338.851 C 68.239 339.379,68.818 339.917,69.140 340.047 C 69.462 340.178,69.209 339.746,68.579 339.087 C 67.195 337.643,66.900 337.547,67.853 338.851 M182.031 389.994 C 182.031 390.076,182.471 390.227,183.008 390.330 C 183.545 390.433,183.984 390.365,183.984 390.180 C 183.984 389.995,183.545 389.844,183.008 389.844 C 182.471 389.844,182.031 389.911,182.031 389.994 " stroke="none" fill="#fafbfb" fill-rule="evenodd"></path><path id="path1" d="M204.395 8.082 C 204.771 8.180,205.386 8.180,205.762 8.082 C 206.138 7.984,205.830 7.903,205.078 7.903 C 204.326 7.903,204.019 7.984,204.395 8.082 M196.484 128.370 C 144.740 133.157,105.469 176.265,105.469 228.278 C 105.469 238.177,106.944 249.841,108.958 255.859 C 109.137 256.396,109.512 257.627,109.790 258.594 C 122.780 303.721,170.164 334.496,217.188 328.346 C 288.813 318.978,327.298 238.669,289.971 176.466 C 270.566 144.129,233.312 124.963,196.484 128.370 M211.246 162.522 C 257.111 167.507,284.002 216.131,263.945 257.813 C 263.066 259.639,262.022 261.611,261.625 262.194 L 260.902 263.256 262.335 263.855 C 263.123 264.184,263.868 264.453,263.992 264.453 C 266.648 264.453,271.837 271.375,272.710 276.081 C 276.019 293.928,250.948 301.981,243.084 285.596 C 242.430 284.234,241.776 283.311,241.631 283.546 C 241.131 284.354,235.486 287.494,230.078 289.971 C 218.778 295.146,201.640 296.367,188.429 292.939 C 167.393 287.481,149.515 270.769,142.585 250.084 C 140.466 243.759,138.854 234.601,139.118 230.386 L 139.258 228.155 137.305 227.697 C 124.977 224.809,115.956 212.983,115.878 199.609 C 115.743 176.203,141.555 162.392,160.879 175.532 C 163.462 177.288,163.085 177.324,166.062 175.044 C 174.045 168.930,185.697 164.116,195.447 162.905 C 202.433 162.036,205.988 161.950,211.246 162.522 M238.108 293.115 C 241.638 294.759,244.141 298.760,244.141 302.760 C 244.141 311.685,233.283 316.520,226.755 310.503 C 218.026 302.456,227.384 288.121,238.108 293.115 " stroke="none" fill="#3bb4eb" fill-rule="evenodd"></path><path id="path2" d="M185.742 8.186 C 187.085 8.733,184.668 9.122,181.551 8.861 C 179.370 8.678,178.689 8.755,178.204 9.240 C 177.747 9.697,177.026 9.808,175.321 9.685 C 174.070 9.594,173.047 9.641,173.047 9.788 C 173.047 10.262,169.819 10.600,169.390 10.171 C 169.167 9.948,168.536 9.786,167.988 9.811 C 167.326 9.841,167.221 9.916,167.676 10.035 C 169.181 10.428,168.308 11.032,166.487 10.857 C 165.177 10.731,164.457 10.845,164.093 11.235 C 163.772 11.579,163.067 11.734,162.255 11.639 C 161.530 11.554,160.938 11.613,160.938 11.769 C 160.938 12.220,156.677 12.984,155.629 12.722 C 154.977 12.558,154.713 12.638,154.782 12.980 C 154.847 13.301,154.434 13.475,153.613 13.473 C 152.915 13.471,152.344 13.585,152.344 13.727 C 152.344 14.122,148.506 14.954,147.847 14.701 C 147.482 14.561,147.266 14.709,147.266 15.100 C 147.266 15.580,147.004 15.670,146.121 15.494 C 145.434 15.356,144.919 15.439,144.832 15.701 C 144.602 16.390,141.546 17.171,141.044 16.669 C 140.746 16.371,140.625 16.454,140.625 16.960 C 140.625 17.502,140.400 17.626,139.668 17.486 C 139.058 17.370,138.632 17.509,138.493 17.872 C 138.373 18.185,138.012 18.340,137.692 18.217 C 137.372 18.094,137.109 18.164,137.109 18.372 C 137.109 18.580,136.768 18.750,136.351 18.750 C 135.934 18.750,135.484 18.926,135.352 19.141 C 135.219 19.355,134.691 19.531,134.180 19.531 C 133.668 19.531,133.133 19.719,132.991 19.949 C 132.850 20.178,132.488 20.271,132.187 20.156 C 131.887 20.041,131.641 20.117,131.641 20.325 C 131.641 20.533,131.299 20.703,130.882 20.703 C 130.465 20.703,130.011 20.886,129.873 21.110 C 129.735 21.333,129.263 21.402,128.824 21.263 C 128.325 21.105,128.120 21.160,128.275 21.411 C 128.566 21.882,125.985 22.828,125.398 22.466 C 125.179 22.330,125.000 22.452,125.000 22.736 C 125.000 23.266,122.336 24.609,121.286 24.609 C 120.966 24.609,120.702 24.741,120.700 24.902 C 120.696 25.324,118.703 26.189,118.305 25.943 C 118.120 25.829,117.969 25.933,117.969 26.175 C 117.969 26.446,117.650 26.514,117.139 26.352 C 116.597 26.180,116.398 26.233,116.565 26.504 C 116.849 26.962,114.700 28.242,114.307 27.849 C 114.173 27.714,114.063 27.821,114.063 28.086 C 114.063 28.393,113.774 28.477,113.271 28.317 C 112.728 28.145,112.514 28.228,112.588 28.584 C 112.648 28.871,112.391 29.077,112.012 29.047 C 111.636 29.017,111.328 29.256,111.328 29.577 C 111.328 29.936,111.102 30.075,110.742 29.937 C 110.420 29.813,110.156 29.882,110.156 30.090 C 110.156 30.298,109.893 30.469,109.570 30.469 C 109.248 30.469,108.984 30.645,108.984 30.859 C 108.984 31.074,108.805 31.250,108.586 31.250 C 108.367 31.250,107.481 31.696,106.618 32.241 C 105.755 32.785,104.880 33.127,104.673 32.999 C 104.466 32.871,104.297 32.935,104.297 33.141 C 104.297 33.946,101.626 35.171,101.453 34.446 C 101.336 33.954,101.226 34.034,101.013 34.766 C 100.750 35.670,95.933 39.062,94.912 39.063 C 94.702 39.063,94.531 39.206,94.531 39.381 C 94.531 39.556,93.831 40.093,92.975 40.574 C 92.120 41.055,91.196 41.659,90.923 41.916 C 90.649 42.173,89.196 43.216,87.693 44.235 C 86.190 45.254,84.257 46.705,83.398 47.461 C 82.539 48.216,81.440 48.939,80.957 49.069 C 80.474 49.198,80.078 49.433,80.078 49.590 C 80.078 50.097,72.680 56.250,72.071 56.250 C 71.749 56.250,71.524 56.382,71.573 56.543 C 71.735 57.077,56.682 71.875,55.971 71.881 C 55.431 71.886,55.393 71.963,55.803 72.222 C 56.209 72.480,55.891 73.056,54.435 74.702 C 51.355 78.186,49.530 80.433,46.420 84.570 C 43.350 88.654,38.281 96.015,38.281 96.389 C 38.281 96.508,37.842 97.182,37.305 97.886 C 36.768 98.590,36.328 99.354,36.328 99.583 C 36.328 99.812,36.152 100.000,35.938 100.000 C 35.723 100.000,35.547 100.173,35.547 100.385 C 35.547 100.596,35.020 101.625,34.377 102.671 C 32.787 105.256,31.001 108.483,30.179 110.259 C 29.802 111.075,29.288 111.649,29.027 111.549 C 28.757 111.445,28.641 111.590,28.755 111.889 C 28.866 112.176,27.714 114.989,26.197 118.140 C 24.679 121.291,23.437 123.944,23.437 124.034 C 23.437 124.125,22.915 125.340,22.277 126.734 C 21.638 128.128,20.996 129.746,20.849 130.331 C 20.702 130.915,20.375 131.792,20.122 132.280 C 19.869 132.768,18.817 135.768,17.785 138.947 C 16.753 142.126,15.760 145.078,15.578 145.508 C 15.397 145.938,15.058 147.080,14.825 148.047 C 14.592 149.014,14.247 150.420,14.058 151.172 C 12.456 157.548,11.596 161.733,10.705 167.491 C 10.597 168.196,10.384 168.696,10.234 168.603 C 10.084 168.510,9.953 169.340,9.944 170.447 C 9.924 172.723,9.416 177.629,9.107 178.516 C 8.995 178.838,8.849 180.752,8.783 182.768 C 8.717 184.785,8.515 186.543,8.335 186.674 C 7.925 186.975,7.898 211.442,8.308 211.746 C 8.473 211.869,8.689 213.733,8.787 215.889 C 8.885 218.045,9.040 220.054,9.132 220.354 C 9.224 220.653,9.510 222.744,9.768 225.000 C 10.026 227.256,10.402 229.652,10.603 230.325 C 10.804 230.999,11.005 232.884,11.050 234.516 C 11.104 236.461,11.301 237.549,11.621 237.674 C 11.890 237.780,12.109 238.197,12.109 238.601 C 12.109 240.487,16.715 257.462,18.329 261.523 C 18.499 261.953,19.382 264.238,20.291 266.602 C 21.199 268.965,22.296 271.689,22.728 272.656 C 23.160 273.623,23.785 275.029,24.117 275.781 C 28.040 284.671,33.184 294.362,37.049 300.141 C 38.125 301.752,38.854 302.958,39.320 303.906 C 39.479 304.229,39.761 304.668,39.946 304.883 C 40.132 305.098,41.459 306.954,42.896 309.008 C 45.955 313.383,50.048 318.694,53.103 322.256 C 54.297 323.647,55.800 325.405,56.443 326.162 C 57.086 326.919,60.382 330.350,63.767 333.785 C 67.152 337.220,69.922 340.252,69.922 340.523 C 69.922 340.794,70.211 341.016,70.563 341.016 C 71.167 341.016,73.874 343.121,76.953 345.987 C 77.705 346.686,78.452 347.260,78.613 347.262 C 78.774 347.264,78.909 347.661,78.912 348.145 C 78.917 348.777,79.011 348.877,79.250 348.500 C 79.509 348.092,79.871 348.226,80.904 349.111 C 81.631 349.735,82.798 350.641,83.496 351.126 C 84.265 351.659,84.768 352.342,84.772 352.859 C 84.776 353.485,84.867 353.571,85.113 353.181 C 85.472 352.614,87.500 353.600,87.500 354.342 C 87.500 354.532,87.636 354.644,87.803 354.590 C 88.394 354.399,92.222 357.441,91.948 357.884 C 91.781 358.155,91.852 358.215,92.133 358.041 C 92.880 357.580,99.210 361.671,99.264 362.650 C 99.298 363.269,99.353 363.312,99.483 362.820 C 99.671 362.109,102.344 363.306,102.344 364.101 C 102.344 364.295,102.476 364.420,102.637 364.379 C 103.162 364.247,106.706 366.121,106.903 366.636 C 107.009 366.912,107.345 367.043,107.650 366.926 C 107.991 366.795,108.203 366.963,108.203 367.364 C 108.203 367.722,108.381 367.905,108.599 367.770 C 108.816 367.636,109.563 367.825,110.259 368.190 C 110.954 368.555,113.633 369.909,116.211 371.198 C 118.789 372.488,120.957 373.696,121.029 373.883 C 121.102 374.071,121.314 374.129,121.502 374.013 C 121.690 373.897,122.158 373.964,122.543 374.162 C 124.287 375.061,127.820 376.530,132.129 378.148 C 134.009 378.854,135.547 379.560,135.547 379.718 C 135.547 379.876,135.896 379.914,136.323 379.802 C 136.794 379.679,137.186 379.824,137.320 380.171 C 137.460 380.537,137.884 380.678,138.496 380.561 C 139.186 380.429,139.453 380.550,139.453 380.997 C 139.453 381.383,139.671 381.533,140.031 381.394 C 140.562 381.191,142.259 381.602,146.847 383.049 C 147.798 383.348,148.902 383.594,149.301 383.594 C 149.699 383.594,150.114 383.826,150.223 384.110 C 150.347 384.435,150.847 384.563,151.573 384.457 C 152.355 384.342,152.798 384.476,152.950 384.874 C 153.081 385.214,153.478 385.382,153.893 385.273 C 154.864 385.019,159.046 385.912,158.794 386.320 C 158.684 386.498,159.294 386.551,160.149 386.436 C 161.354 386.274,161.759 386.370,161.948 386.861 C 162.083 387.213,162.390 387.373,162.638 387.219 C 163.339 386.786,165.300 387.119,165.965 387.784 C 166.367 388.186,166.616 388.239,166.714 387.943 C 166.912 387.351,167.939 387.387,169.171 388.031 C 169.725 388.320,170.734 388.475,171.413 388.375 C 172.856 388.163,174.728 388.555,174.446 389.010 C 174.339 389.184,175.518 389.321,177.067 389.316 C 182.727 389.297,190.315 389.815,190.848 390.257 C 191.193 390.544,192.589 390.656,194.718 390.568 C 196.549 390.492,198.047 390.518,198.046 390.625 C 198.045 390.981,206.422 390.578,206.877 390.200 C 207.320 389.833,214.648 389.333,220.313 389.283 C 222.191 389.267,223.440 389.070,223.792 388.736 C 224.142 388.404,225.028 388.262,226.234 388.345 C 227.274 388.418,228.181 388.311,228.248 388.108 C 228.315 387.906,229.282 387.740,230.396 387.740 C 231.510 387.740,232.422 387.575,232.422 387.372 C 232.422 387.159,233.174 387.106,234.200 387.247 C 235.296 387.397,235.889 387.347,235.746 387.116 C 235.428 386.601,237.276 386.187,238.509 386.497 C 239.147 386.657,239.429 386.605,239.275 386.355 C 239.140 386.138,239.521 385.857,240.121 385.732 C 240.720 385.606,241.909 385.346,242.762 385.154 C 243.874 384.904,244.398 384.938,244.612 385.273 C 244.819 385.599,244.912 385.546,244.916 385.101 C 244.922 384.460,246.525 383.982,248.926 383.906 C 249.517 383.888,250.000 383.702,250.000 383.493 C 250.000 383.285,250.517 383.190,251.148 383.283 C 251.831 383.383,252.266 383.282,252.222 383.034 C 252.182 382.805,252.632 382.650,253.223 382.691 C 253.813 382.731,254.297 382.619,254.297 382.442 C 254.297 382.264,255.571 381.726,257.129 381.245 C 258.687 380.764,260.313 380.211,260.742 380.017 C 261.172 379.822,262.051 379.625,262.695 379.578 C 263.340 379.531,264.058 379.248,264.292 378.950 C 264.525 378.652,264.965 378.492,265.268 378.594 C 265.572 378.696,266.011 378.521,266.244 378.204 C 266.478 377.888,267.224 377.609,267.904 377.584 C 268.607 377.558,269.139 377.329,269.140 377.051 C 269.140 376.782,269.482 376.563,269.899 376.563 C 270.316 376.562,270.773 376.375,270.915 376.145 C 271.057 375.916,271.419 375.822,271.719 375.938 C 272.020 376.053,272.266 375.957,272.266 375.723 C 272.266 375.490,272.617 375.391,273.047 375.504 C 273.555 375.637,273.828 375.516,273.828 375.159 C 273.828 374.857,274.180 374.609,274.609 374.609 C 275.039 374.609,275.391 374.442,275.391 374.236 C 275.391 374.031,276.006 373.748,276.758 373.607 C 277.510 373.466,278.125 373.174,278.125 372.958 C 278.125 372.742,278.477 372.657,278.907 372.770 C 279.337 372.882,279.590 372.814,279.469 372.619 C 279.178 372.147,281.079 371.443,281.849 371.739 C 282.235 371.887,282.413 371.777,282.340 371.435 C 282.275 371.127,282.518 370.922,282.910 370.953 C 283.286 370.983,283.594 370.854,283.594 370.668 C 283.594 370.169,286.679 368.680,287.132 368.960 C 287.345 369.091,287.471 368.966,287.412 368.681 C 287.352 368.394,287.609 368.188,287.988 368.218 C 288.364 368.248,288.672 368.116,288.672 367.925 C 288.672 367.734,288.936 367.578,289.258 367.578 C 289.580 367.578,289.844 367.402,289.844 367.188 C 289.844 366.973,290.093 366.797,290.397 366.797 C 290.701 366.797,291.009 366.665,291.081 366.504 C 291.323 365.958,293.749 364.797,294.141 365.040 C 294.356 365.172,294.531 365.006,294.531 364.671 C 294.531 364.337,294.705 364.063,294.917 364.063 C 295.130 364.063,296.882 363.082,298.810 361.883 C 300.739 360.684,302.499 359.816,302.721 359.953 C 302.943 360.090,303.125 359.940,303.125 359.620 C 303.125 359.299,303.521 358.912,304.004 358.759 C 304.487 358.607,305.121 358.144,305.412 357.730 C 305.702 357.317,306.186 357.073,306.486 357.188 C 306.786 357.303,307.033 357.183,307.035 356.921 C 307.042 356.121,310.648 353.831,311.008 354.398 C 311.229 354.746,311.318 354.697,311.322 354.228 C 311.329 353.469,313.207 351.861,313.718 352.177 C 313.907 352.294,314.063 352.116,314.063 351.781 C 314.063 351.446,314.205 351.172,314.379 351.172 C 314.554 351.172,315.037 350.863,315.454 350.485 C 317.742 348.408,319.474 347.282,319.661 347.748 C 319.772 348.022,319.881 347.894,319.906 347.461 C 319.953 346.656,323.184 343.866,323.861 344.047 C 324.070 344.102,324.356 343.846,324.498 343.477 C 324.867 342.516,329.323 338.466,329.941 338.530 C 330.227 338.560,330.380 338.453,330.281 338.294 C 330.034 337.894,331.831 336.258,332.158 336.585 C 332.303 336.730,332.422 336.583,332.422 336.258 C 332.422 335.542,333.748 334.269,334.114 334.635 C 334.257 334.778,334.375 334.632,334.375 334.309 C 334.375 333.987,334.858 333.264,335.449 332.704 C 336.040 332.143,337.842 330.191,339.453 328.365 C 341.064 326.539,342.767 324.931,343.236 324.792 C 343.720 324.648,344.004 324.318,343.894 324.030 C 343.786 323.750,344.457 322.646,345.384 321.575 C 346.312 320.504,347.949 318.508,349.023 317.138 C 350.097 315.769,351.116 314.473,351.288 314.258 C 351.459 314.043,352.295 312.900,353.145 311.719 C 353.994 310.537,354.844 309.381,355.032 309.149 C 355.220 308.917,355.861 307.951,356.456 307.001 C 357.052 306.051,357.650 305.186,357.785 305.078 C 358.219 304.735,364.310 294.701,366.322 291.016 C 372.869 279.027,379.139 264.166,382.227 253.320 C 382.594 252.031,383.139 250.198,383.439 249.247 C 383.739 248.295,383.984 247.194,383.984 246.800 C 383.984 246.406,384.151 245.778,384.355 245.405 C 384.675 244.818,385.606 240.545,386.757 234.375 C 387.108 232.496,388.281 224.301,388.281 223.732 C 388.281 223.545,388.425 223.480,388.601 223.589 C 388.777 223.698,388.845 223.268,388.752 222.633 C 388.511 220.994,389.050 217.134,389.482 217.401 C 389.681 217.524,389.844 217.453,389.844 217.243 C 389.844 217.033,389.702 216.803,389.530 216.732 C 389.357 216.660,389.378 214.492,389.577 211.914 C 390.039 205.919,390.028 192.189,389.555 186.133 C 389.354 183.555,389.337 181.387,389.517 181.315 C 389.697 181.243,389.844 181.013,389.844 180.804 C 389.844 180.594,389.679 180.524,389.478 180.649 C 388.999 180.945,388.517 177.669,388.791 175.978 C 388.909 175.251,388.845 174.601,388.648 174.535 C 388.082 174.344,387.191 166.483,387.678 165.985 C 387.963 165.694,387.910 165.607,387.500 165.695 C 387.100 165.780,386.875 165.448,386.792 164.648 C 386.657 163.343,385.346 156.809,384.794 154.688 C 382.216 144.774,381.337 141.840,379.000 135.352 C 374.231 122.115,366.662 106.875,359.339 95.769 C 358.285 94.169,357.422 92.799,357.422 92.724 C 357.422 92.649,357.166 92.277,356.853 91.899 C 356.338 91.277,353.841 87.812,351.488 84.454 C 350.992 83.746,350.019 82.516,349.325 81.720 C 348.632 80.924,348.061 80.157,348.056 80.014 C 348.051 79.871,347.476 79.155,346.777 78.423 C 343.996 75.507,340.433 71.010,340.484 70.482 C 340.514 70.174,340.314 69.922,340.039 69.922 C 339.471 69.922,328.516 59.129,328.516 58.569 C 328.516 58.368,328.344 58.247,328.134 58.301 C 327.577 58.443,322.710 54.201,322.681 53.548 C 322.667 53.244,322.544 53.108,322.406 53.245 C 322.054 53.597,318.311 50.395,318.575 49.968 C 318.693 49.776,318.562 49.699,318.282 49.798 C 317.563 50.051,315.890 48.567,316.245 47.991 C 316.439 47.678,316.333 47.601,315.925 47.758 C 315.387 47.964,311.396 45.422,309.857 43.894 C 309.584 43.623,308.662 43.008,307.806 42.527 C 306.950 42.047,306.250 41.427,306.250 41.151 C 306.250 40.875,306.005 40.744,305.705 40.859 C 305.405 40.974,304.921 40.728,304.630 40.313 C 304.340 39.898,303.926 39.512,303.711 39.456 C 302.659 39.181,302.341 38.926,302.313 38.337 C 302.296 37.979,302.199 37.898,302.095 38.155 C 301.973 38.453,301.023 38.060,299.394 37.039 C 297.990 36.159,296.992 35.282,297.133 35.054 C 297.281 34.816,297.198 34.761,296.936 34.923 C 296.499 35.193,294.077 34.086,293.815 33.496 C 293.743 33.335,293.436 33.203,293.132 33.203 C 292.827 33.203,292.578 32.929,292.578 32.594 C 292.578 32.259,292.402 32.094,292.188 32.226 C 291.845 32.439,287.232 30.281,286.719 29.668 C 286.611 29.540,286.205 29.317,285.815 29.173 C 285.425 29.030,285.206 28.751,285.327 28.555 C 285.449 28.358,285.196 28.290,284.766 28.402 C 284.336 28.515,283.984 28.416,283.984 28.183 C 283.984 27.950,283.721 27.860,283.398 27.984 C 283.076 28.107,282.813 28.014,282.813 27.776 C 282.813 27.538,282.618 27.344,282.380 27.344 C 282.142 27.344,280.868 26.832,279.548 26.207 C 274.647 23.887,271.028 22.266,270.748 22.266 C 270.589 22.266,269.755 21.925,268.895 21.510 C 268.034 21.094,266.844 20.632,266.251 20.483 C 265.657 20.334,265.079 19.972,264.967 19.679 C 264.834 19.334,264.433 19.229,263.826 19.381 C 263.112 19.561,262.891 19.458,262.891 18.946 C 262.891 18.516,262.684 18.355,262.316 18.496 C 261.507 18.807,255.345 16.817,254.935 16.113 C 254.693 15.697,254.517 15.660,254.318 15.982 C 254.018 16.466,252.734 16.153,252.734 15.595 C 252.734 15.410,252.468 15.361,252.141 15.486 C 251.815 15.612,251.068 15.535,250.481 15.315 C 248.165 14.450,247.820 14.351,246.950 14.291 C 246.454 14.258,245.927 14.060,245.778 13.853 C 245.629 13.646,244.980 13.477,244.336 13.477 C 243.644 13.477,243.200 13.287,243.253 13.014 C 243.314 12.697,242.917 12.621,241.987 12.772 C 241.181 12.903,240.400 12.799,240.059 12.517 C 239.745 12.256,239.316 12.148,239.107 12.277 C 238.898 12.406,237.968 12.336,237.039 12.122 C 236.111 11.907,234.861 11.635,234.261 11.518 C 233.662 11.401,233.260 11.161,233.369 10.985 C 233.478 10.808,232.694 10.748,231.627 10.850 C 229.750 11.031,228.834 10.436,230.371 10.035 C 230.792 9.925,230.641 9.839,229.980 9.811 C 229.390 9.786,228.906 9.965,228.906 10.209 C 228.906 10.696,225.411 10.382,225.021 9.860 C 224.902 9.701,223.589 9.570,222.103 9.569 C 220.616 9.569,219.341 9.390,219.268 9.171 C 219.188 8.931,217.978 8.833,216.210 8.922 C 212.819 9.093,210.615 8.715,211.914 8.186 C 212.523 7.938,212.368 7.861,211.207 7.840 C 210.309 7.823,209.815 7.967,209.961 8.203 C 210.120 8.460,206.319 8.594,198.851 8.594 C 191.544 8.594,187.500 8.455,187.500 8.203 C 187.500 7.988,186.929 7.825,186.230 7.840 C 185.186 7.863,185.099 7.924,185.742 8.186 M214.887 55.447 C 216.260 55.671,219.641 56.207,222.402 56.637 C 227.083 57.366,232.061 58.405,235.742 59.421 C 238.038 60.054,246.943 62.870,247.852 63.250 C 248.281 63.430,250.479 64.332,252.734 65.255 C 297.110 83.414,329.832 121.775,340.017 167.578 C 340.375 169.189,340.829 171.211,341.026 172.070 C 344.180 185.870,344.094 213.796,340.855 227.539 C 340.754 227.969,340.378 229.639,340.018 231.250 C 335.913 249.669,325.163 272.665,314.202 286.468 C 300.885 303.241,288.745 314.163,273.047 323.493 C 268.829 326.000,257.908 331.641,257.272 331.641 C 257.153 331.641,256.126 332.057,254.992 332.566 C 251.147 334.292,242.826 337.208,237.695 338.628 C 231.946 340.220,227.984 341.022,218.164 342.585 C 208.941 344.053,188.712 344.028,179.102 342.537 C 173.937 341.736,169.724 341.007,168.164 340.644 C 153.880 337.325,144.099 333.767,132.137 327.539 C 92.302 306.796,63.664 267.980,56.052 224.414 C 53.443 209.481,53.367 188.520,55.874 175.195 C 61.675 144.366,77.292 114.714,97.536 96.094 C 106.509 87.840,113.547 82.359,121.875 77.140 C 128.051 73.269,140.930 66.406,142.017 66.406 C 142.098 66.406,143.092 65.994,144.227 65.491 C 145.361 64.987,146.904 64.354,147.656 64.084 C 148.408 63.814,149.375 63.444,149.805 63.263 C 151.165 62.688,157.524 60.609,159.961 59.942 C 169.176 57.422,178.035 55.853,187.500 55.065 C 192.391 54.658,211.709 54.927,214.887 55.447 M197.357 163.128 C 186.536 164.440,175.808 168.531,167.452 174.534 C 163.671 177.250,163.727 177.150,165.143 178.647 C 183.255 197.807,170.647 228.563,144.629 228.686 L 139.453 228.711 139.453 230.288 C 139.453 238.314,142.523 250.340,146.679 258.592 C 163.718 292.427,206.132 304.694,238.494 285.146 L 241.820 283.137 241.515 281.705 C 239.492 272.190,247.351 262.891,257.416 262.891 L 260.896 262.891 263.443 257.715 C 286.304 211.258,248.358 156.947,197.357 163.128 " stroke="none" fill="#040404" fill-rule="evenodd"></path><path id="path3" d="M182.617 8.387 L 181.055 8.902 183.203 8.937 C 185.638 8.977,186.974 8.467,185.482 8.067 C 184.380 7.772,184.537 7.755,182.617 8.387 M187.502 8.301 C 187.501 8.462,192.642 8.568,198.926 8.536 C 208.456 8.488,209.671 8.423,206.250 8.147 C 201.451 7.759,187.505 7.874,187.502 8.301 M211.943 8.162 C 210.739 8.634,212.114 8.991,214.973 8.949 L 217.383 8.915 215.430 8.371 C 213.237 7.761,213.003 7.747,211.943 8.162 M175.361 8.958 C 175.780 9.223,175.635 9.352,174.775 9.479 C 173.972 9.598,174.174 9.666,175.456 9.707 C 176.459 9.739,177.558 9.659,177.898 9.529 C 179.111 9.063,178.485 8.594,176.660 8.600 C 175.406 8.604,174.985 8.720,175.361 8.958 M219.141 8.939 C 219.141 9.454,220.655 9.762,222.852 9.695 C 224.721 9.637,224.737 9.627,223.242 9.462 C 221.975 9.322,221.827 9.228,222.461 8.969 C 223.017 8.741,222.652 8.641,221.191 8.621 C 220.063 8.606,219.141 8.749,219.141 8.939 M170.313 9.807 C 170.313 10.058,170.025 10.130,169.629 9.980 C 169.134 9.791,169.063 9.838,169.370 10.148 C 169.855 10.636,173.047 10.261,173.047 9.716 C 173.047 9.528,172.432 9.375,171.680 9.375 C 170.928 9.375,170.313 9.570,170.313 9.807 M225.000 9.742 C 225.000 10.166,228.432 10.761,228.794 10.399 C 228.927 10.265,228.656 10.156,228.190 10.156 C 227.725 10.156,227.344 9.980,227.344 9.766 C 227.344 9.551,226.816 9.375,226.172 9.375 C 225.527 9.375,225.000 9.540,225.000 9.742 M166.016 10.547 C 165.186 10.813,165.289 10.865,166.699 10.899 C 167.612 10.920,168.359 10.762,168.359 10.547 C 168.359 10.097,167.421 10.097,166.016 10.547 M229.688 10.547 C 229.688 10.762,230.259 10.935,230.957 10.932 C 231.920 10.927,232.085 10.834,231.641 10.547 C 230.873 10.051,229.688 10.051,229.688 10.547 M162.891 10.938 C 162.891 11.152,162.495 11.349,162.012 11.373 C 161.304 11.410,161.272 11.455,161.847 11.603 C 162.788 11.846,164.453 11.416,164.453 10.930 C 164.453 10.719,164.102 10.547,163.672 10.547 C 163.242 10.547,162.891 10.723,162.891 10.938 M233.406 10.926 C 233.277 11.135,233.662 11.401,234.261 11.518 C 234.861 11.635,236.127 11.911,237.075 12.131 C 238.297 12.415,238.921 12.406,239.223 12.102 C 239.531 11.791,239.460 11.744,238.965 11.933 C 238.569 12.084,238.281 12.011,238.281 11.761 C 238.281 11.509,237.505 11.317,236.426 11.301 C 235.030 11.280,234.764 11.190,235.352 10.938 C 236.010 10.655,235.937 10.597,234.886 10.574 C 234.201 10.559,233.534 10.718,233.406 10.926 M159.375 11.659 C 159.375 11.841,158.824 12.006,158.150 12.025 C 157.476 12.044,156.737 12.247,156.509 12.475 C 155.971 13.013,156.428 13.012,158.965 12.468 C 160.915 12.050,161.669 11.328,160.156 11.328 C 159.727 11.328,159.375 11.477,159.375 11.659 M240.039 12.500 C 240.172 12.715,240.632 12.891,241.062 12.891 C 241.491 12.891,241.734 12.715,241.602 12.500 C 241.469 12.285,241.009 12.109,240.579 12.109 C 240.149 12.109,239.906 12.285,240.039 12.500 M153.906 12.829 C 153.906 13.046,153.599 13.312,153.223 13.420 C 152.847 13.528,153.066 13.585,153.711 13.547 C 154.355 13.508,154.852 13.305,154.814 13.096 C 154.721 12.576,153.906 12.337,153.906 12.829 M243.240 12.750 C 242.772 13.218,243.403 13.672,244.457 13.627 C 245.118 13.598,245.254 13.515,244.824 13.403 C 244.448 13.304,244.141 13.061,244.141 12.862 C 244.141 12.447,243.609 12.380,243.240 12.750 M150.977 13.672 C 151.117 13.899,150.728 14.063,150.046 14.063 C 149.402 14.063,148.766 14.238,148.633 14.453 C 148.329 14.945,148.484 14.942,150.608 14.407 C 152.400 13.956,152.958 13.281,151.539 13.281 C 151.097 13.281,150.844 13.457,150.977 13.672 M245.703 13.646 C 245.703 14.107,247.138 14.578,247.626 14.277 C 247.828 14.152,248.103 14.228,248.238 14.447 C 248.373 14.665,248.772 14.844,249.125 14.844 C 249.599 14.844,249.652 14.730,249.326 14.404 C 249.084 14.163,248.434 13.965,247.881 13.965 C 247.328 13.965,246.875 13.811,246.875 13.623 C 246.875 13.435,246.611 13.281,246.289 13.281 C 245.967 13.281,245.703 13.445,245.703 13.646 M146.484 14.867 C 146.484 15.094,146.309 15.172,146.094 15.039 C 145.879 14.906,145.703 14.984,145.703 15.211 C 145.703 15.439,146.055 15.625,146.484 15.625 C 146.918 15.625,147.266 15.365,147.266 15.039 C 147.266 14.717,147.090 14.453,146.875 14.453 C 146.660 14.453,146.484 14.639,146.484 14.867 M250.000 14.802 C 250.000 15.197,250.946 15.625,251.818 15.625 C 252.331 15.625,252.331 15.556,251.814 15.039 C 251.173 14.398,250.000 14.245,250.000 14.802 M143.915 15.576 C 144.031 15.764,143.418 16.031,142.553 16.170 C 141.687 16.308,141.074 16.575,141.191 16.764 C 141.467 17.211,144.641 16.272,144.837 15.685 C 144.919 15.437,144.698 15.234,144.345 15.234 C 143.993 15.234,143.799 15.388,143.915 15.576 M252.734 15.607 C 252.734 15.887,253.644 16.406,254.134 16.406 C 254.731 16.406,254.141 15.389,253.516 15.342 C 253.086 15.309,252.734 15.429,252.734 15.607 M255.078 16.335 C 255.078 16.510,256.440 17.066,258.105 17.570 C 259.771 18.074,261.353 18.564,261.621 18.660 C 261.890 18.755,262.109 18.639,262.109 18.401 C 262.109 18.163,261.670 17.969,261.133 17.969 C 260.596 17.969,260.156 17.793,260.156 17.578 C 260.156 17.363,259.629 17.188,258.984 17.188 C 258.340 17.188,257.813 16.991,257.813 16.751 C 257.813 16.508,257.468 16.405,257.032 16.519 C 256.602 16.632,256.152 16.564,256.032 16.370 C 255.760 15.929,255.078 15.904,255.078 16.335 M139.803 16.763 C 140.241 17.041,140.202 17.146,139.607 17.298 C 138.980 17.459,139.001 17.494,139.746 17.533 C 140.287 17.561,140.625 17.353,140.625 16.992 C 140.625 16.670,140.317 16.409,139.941 16.412 C 139.394 16.417,139.367 16.487,139.803 16.763 M138.098 17.559 C 137.954 17.791,137.699 17.896,137.531 17.792 C 137.362 17.688,136.891 17.856,136.483 18.164 C 135.805 18.677,135.800 18.726,136.426 18.738 C 136.802 18.744,137.109 18.580,137.109 18.372 C 137.109 18.164,137.355 18.088,137.656 18.203 C 138.199 18.411,138.928 17.704,138.555 17.331 C 138.447 17.223,138.242 17.326,138.098 17.559 M134.180 18.750 C 134.312 18.965,134.059 19.141,133.617 19.141 C 133.174 19.141,132.813 19.327,132.813 19.554 C 132.813 19.782,132.637 19.859,132.422 19.727 C 132.207 19.594,132.031 19.671,132.031 19.899 C 132.031 20.407,132.529 20.435,133.027 19.955 C 133.231 19.758,133.824 19.539,134.344 19.467 C 135.548 19.300,135.914 18.359,134.775 18.359 C 134.315 18.359,134.047 18.535,134.180 18.750 M262.891 18.945 C 262.891 19.268,263.154 19.531,263.477 19.531 C 263.799 19.531,264.063 19.268,264.063 18.945 C 264.063 18.623,263.799 18.359,263.477 18.359 C 263.154 18.359,262.891 18.623,262.891 18.945 M264.875 19.443 C 264.858 19.717,265.295 20.113,265.846 20.322 C 267.093 20.796,267.188 20.796,267.188 20.313 C 267.188 20.098,266.763 19.922,266.243 19.922 C 265.724 19.922,265.211 19.702,265.102 19.434 C 264.947 19.049,264.899 19.052,264.875 19.443 M128.906 20.898 C 128.906 21.221,129.061 21.484,129.249 21.484 C 129.438 21.484,129.811 21.221,130.078 20.898 C 130.484 20.409,130.428 20.313,129.735 20.313 C 129.259 20.313,128.906 20.562,128.906 20.898 M267.827 20.584 C 267.578 20.833,270.064 22.266,270.744 22.266 C 271.028 22.266,274.629 23.878,279.548 26.207 C 280.868 26.832,282.142 27.344,282.380 27.344 C 282.618 27.344,282.813 27.538,282.813 27.776 C 282.813 28.014,283.076 28.107,283.398 27.984 C 283.721 27.860,283.984 27.886,283.984 28.042 C 283.984 28.198,284.556 28.573,285.254 28.877 C 285.952 29.181,286.611 29.536,286.719 29.666 C 287.489 30.596,292.188 32.629,292.188 32.031 C 292.188 31.816,291.836 31.641,291.406 31.641 C 290.977 31.641,290.625 31.465,290.625 31.250 C 290.625 31.035,290.361 30.859,290.039 30.859 C 289.717 30.859,289.453 30.665,289.453 30.427 C 289.453 30.189,289.189 30.096,288.867 30.219 C 288.545 30.343,288.281 30.274,288.281 30.066 C 288.281 29.858,288.107 29.688,287.895 29.688 C 287.683 29.688,287.199 29.422,286.821 29.098 C 286.442 28.774,285.957 28.502,285.742 28.493 C 285.527 28.485,284.956 28.218,284.473 27.902 C 283.989 27.585,283.594 27.425,283.594 27.545 C 283.594 27.666,283.209 27.406,282.739 26.968 C 282.269 26.530,281.587 26.172,281.224 26.172 C 280.861 26.172,280.346 25.908,280.078 25.586 C 279.811 25.264,279.174 25.000,278.663 25.000 C 278.152 25.000,277.734 24.805,277.734 24.568 C 277.734 24.330,277.471 24.236,277.148 24.360 C 276.826 24.484,276.563 24.415,276.563 24.206 C 276.563 23.998,276.201 23.828,275.758 23.828 C 275.316 23.828,275.063 23.652,275.195 23.438 C 275.328 23.223,275.075 23.047,274.632 23.047 C 274.190 23.047,273.828 22.891,273.828 22.701 C 273.828 22.510,273.037 22.236,272.070 22.091 C 271.104 21.946,270.313 21.662,270.313 21.460 C 270.313 21.259,269.951 21.094,269.508 21.094 C 269.066 21.094,268.813 20.918,268.945 20.703 C 269.216 20.264,268.250 20.162,267.827 20.584 M127.734 21.412 C 127.734 21.613,127.163 21.904,126.465 22.058 C 125.767 22.212,125.396 22.418,125.641 22.516 C 126.344 22.795,128.767 21.686,128.209 21.341 C 127.948 21.180,127.734 21.212,127.734 21.412 M124.609 22.656 C 124.609 22.871,124.258 23.047,123.828 23.047 C 123.398 23.047,123.047 23.221,123.047 23.433 C 123.047 23.645,122.347 23.931,121.491 24.068 C 120.636 24.204,120.031 24.470,120.147 24.658 C 120.264 24.846,119.909 25.000,119.359 25.000 C 118.707 25.000,118.359 25.215,118.359 25.618 C 118.359 25.974,118.567 26.140,118.848 26.009 C 119.116 25.884,119.644 25.673,120.020 25.541 C 120.396 25.408,120.703 25.144,120.703 24.954 C 120.703 24.765,120.966 24.609,121.286 24.609 C 122.313 24.609,125.000 23.271,125.000 22.759 C 125.000 22.488,124.912 22.266,124.805 22.266 C 124.697 22.266,124.609 22.441,124.609 22.656 M115.723 26.660 C 115.777 26.933,115.519 27.098,115.137 27.034 C 114.727 26.965,114.453 27.165,114.453 27.532 C 114.453 28.089,114.562 28.089,115.638 27.532 C 116.289 27.196,116.718 26.752,116.591 26.546 C 116.255 26.002,115.608 26.087,115.723 26.660 M111.719 28.711 C 111.719 29.069,111.908 29.299,112.139 29.222 C 112.370 29.145,112.559 28.915,112.559 28.711 C 112.559 28.507,112.370 28.277,112.139 28.200 C 111.908 28.123,111.719 28.353,111.719 28.711 M110.547 29.492 C 110.547 29.814,110.723 30.078,110.938 30.078 C 111.152 30.078,111.328 29.814,111.328 29.492 C 111.328 29.170,111.152 28.906,110.938 28.906 C 110.723 28.906,110.547 29.170,110.547 29.492 M108.882 29.958 C 108.503 30.056,108.294 30.300,108.417 30.498 C 108.539 30.697,108.268 30.859,107.813 30.859 C 107.357 30.859,107.081 31.015,107.199 31.206 C 107.423 31.568,106.018 32.159,105.176 32.057 C 104.907 32.024,104.688 32.268,104.688 32.600 C 104.688 33.398,104.827 33.372,106.641 32.227 C 107.491 31.689,108.367 31.250,108.586 31.250 C 108.805 31.250,108.984 31.074,108.984 30.859 C 108.984 30.645,109.248 30.469,109.570 30.469 C 109.893 30.469,110.156 30.293,110.156 30.078 C 110.156 29.672,110.026 29.659,108.882 29.958 M292.578 32.617 C 292.578 32.939,292.842 33.203,293.164 33.203 C 293.486 33.203,293.750 33.379,293.750 33.594 C 293.750 33.809,293.931 33.984,294.152 33.984 C 294.373 33.984,296.218 35.033,298.253 36.315 C 300.706 37.861,301.953 38.453,301.953 38.073 C 301.953 37.758,301.728 37.500,301.453 37.500 C 301.179 37.500,300.712 37.164,300.416 36.754 C 300.121 36.344,299.680 36.085,299.437 36.178 C 299.195 36.271,298.625 36.002,298.172 35.580 C 297.719 35.158,297.242 34.919,297.112 35.050 C 296.982 35.180,296.875 34.982,296.875 34.609 C 296.875 34.109,296.670 33.997,296.094 34.180 C 295.646 34.322,295.313 34.250,295.313 34.011 C 295.313 33.781,295.049 33.594,294.727 33.594 C 294.404 33.594,294.141 33.418,294.141 33.203 C 294.141 32.988,293.867 32.813,293.532 32.813 C 293.197 32.813,293.031 32.637,293.164 32.422 C 293.297 32.207,293.219 32.031,292.992 32.031 C 292.764 32.031,292.578 32.295,292.578 32.617 M103.125 33.398 C 102.858 33.721,102.397 33.984,102.101 33.984 C 101.805 33.984,101.563 34.242,101.563 34.557 C 101.563 35.016,101.835 34.969,102.930 34.323 C 103.682 33.880,104.297 33.358,104.297 33.165 C 104.297 32.621,103.665 32.747,103.125 33.398 M99.707 35.536 C 99.417 35.999,98.985 36.214,98.620 36.074 C 98.234 35.926,98.056 36.035,98.129 36.378 C 98.191 36.673,97.979 36.914,97.656 36.914 C 97.334 36.914,96.762 37.250,96.384 37.660 C 96.007 38.071,95.585 38.294,95.447 38.156 C 95.309 38.018,94.915 38.228,94.571 38.623 C 94.227 39.018,93.550 39.466,93.066 39.619 C 92.583 39.772,92.188 40.060,92.188 40.261 C 92.188 40.461,91.988 40.625,91.745 40.625 C 91.502 40.625,90.973 41.005,90.571 41.469 C 90.168 41.933,89.726 42.200,89.588 42.062 C 89.450 41.924,89.005 42.194,88.599 42.662 C 88.193 43.130,87.607 43.550,87.298 43.596 C 86.696 43.684,85.288 44.922,85.789 44.922 C 85.953 44.922,85.748 45.170,85.333 45.473 C 84.918 45.776,84.445 45.942,84.282 45.841 C 84.118 45.740,83.984 45.843,83.984 46.071 C 83.984 46.298,83.691 46.484,83.333 46.484 C 82.975 46.484,82.798 46.600,82.939 46.741 C 83.316 47.118,82.444 48.031,81.904 47.824 C 81.651 47.727,81.223 48.001,80.953 48.433 C 80.059 49.864,81.667 49.048,84.102 46.833 C 84.489 46.481,86.070 45.336,87.616 44.288 C 89.161 43.240,90.649 42.173,90.923 41.916 C 91.196 41.659,92.120 41.055,92.975 40.574 C 93.831 40.093,94.531 39.556,94.531 39.381 C 94.531 39.206,94.702 39.063,94.912 39.063 C 95.644 39.063,100.758 35.737,100.770 35.254 C 100.787 34.523,100.251 34.665,99.707 35.536 M302.344 38.383 C 302.344 38.653,302.695 39.094,303.125 39.362 C 303.777 39.769,303.906 39.753,303.906 39.261 C 303.906 38.937,303.632 38.672,303.297 38.672 C 302.962 38.672,302.797 38.496,302.930 38.281 C 303.062 38.066,302.985 37.891,302.757 37.891 C 302.530 37.891,302.344 38.112,302.344 38.383 M304.297 39.802 C 304.297 40.177,305.161 41.016,305.547 41.016 C 306.215 41.016,305.817 39.924,305.078 39.731 C 304.648 39.618,304.297 39.650,304.297 39.802 M306.281 41.041 C 306.264 41.378,306.950 42.047,307.806 42.527 C 308.662 43.008,309.584 43.623,309.857 43.894 C 310.705 44.736,315.368 48.043,315.509 47.902 C 315.881 47.531,315.053 46.484,314.388 46.484 C 313.911 46.484,313.730 46.315,313.904 46.033 C 314.059 45.784,314.013 45.687,313.803 45.817 C 313.594 45.946,313.177 45.710,312.876 45.292 C 312.574 44.873,312.064 44.531,311.743 44.531 C 311.421 44.531,310.757 44.064,310.266 43.494 C 309.776 42.923,309.375 42.605,309.375 42.786 C 309.375 42.968,309.017 42.731,308.579 42.261 C 308.140 41.791,307.540 41.406,307.244 41.406 C 306.948 41.406,306.617 41.187,306.509 40.918 C 306.379 40.596,306.301 40.638,306.281 41.041 M316.046 48.376 C 316.100 48.835,322.266 53.555,322.266 53.138 C 322.266 52.555,320.915 51.292,319.971 50.992 C 319.525 50.851,318.808 50.239,318.377 49.634 C 317.675 48.648,315.969 47.728,316.046 48.376 M79.688 49.632 C 79.688 49.860,79.485 49.921,79.237 49.767 C 78.957 49.595,78.892 49.660,79.064 49.940 C 79.227 50.204,79.101 50.391,78.761 50.391 C 78.440 50.391,77.827 50.884,77.397 51.487 C 76.968 52.090,75.813 52.997,74.832 53.502 C 73.850 54.007,73.047 54.555,73.047 54.721 C 73.047 54.887,72.771 55.299,72.433 55.636 C 70.552 57.518,73.193 55.791,76.368 53.064 C 79.622 50.269,80.582 49.219,79.883 49.219 C 79.775 49.219,79.688 49.405,79.688 49.632 M322.687 53.410 C 322.670 53.674,323.420 54.594,324.353 55.454 C 326.876 57.779,328.125 58.701,328.125 58.235 C 328.125 57.647,325.761 55.449,324.684 55.035 C 324.187 54.845,323.890 54.513,324.023 54.298 C 324.156 54.082,324.005 53.906,323.688 53.906 C 323.371 53.906,323.023 53.687,322.915 53.418 C 322.763 53.040,322.711 53.039,322.687 53.410 M187.001 55.053 C 184.685 55.222,182.672 55.479,182.528 55.623 C 182.383 55.768,184.014 55.751,186.152 55.586 C 190.981 55.214,205.771 55.185,211.523 55.536 C 214.314 55.706,215.341 55.675,214.453 55.447 C 212.580 54.966,192.189 54.673,187.001 55.053 M175.586 56.462 C 170.563 57.302,169.831 57.461,170.039 57.669 C 170.147 57.777,171.791 57.592,173.692 57.258 C 175.593 56.924,178.203 56.494,179.492 56.302 C 181.380 56.021,181.532 55.952,180.273 55.947 C 179.414 55.943,177.305 56.175,175.586 56.462 M217.578 56.270 C 220.069 56.713,222.286 56.676,220.117 56.228 C 219.258 56.050,217.939 55.916,217.188 55.931 C 215.913 55.955,215.939 55.978,217.578 56.270 M71.237 56.556 C 71.387 56.799,70.750 57.499,69.754 58.184 C 67.634 59.643,60.156 66.928,60.156 67.535 C 60.156 67.773,59.863 67.969,59.505 67.969 C 59.147 67.969,58.961 68.075,59.091 68.206 C 59.344 68.459,59.042 68.880,57.294 70.716 C 56.687 71.353,56.295 71.875,56.423 71.875 C 57.034 71.875,71.784 56.631,71.402 56.394 C 71.153 56.240,71.084 56.308,71.237 56.556 M226.172 57.642 C 230.896 58.620,231.498 58.712,231.191 58.404 C 230.903 58.116,223.470 56.636,222.516 56.676 C 222.056 56.695,223.701 57.130,226.172 57.642 M166.992 58.203 L 166.211 58.539 166.992 58.527 C 167.422 58.521,168.213 58.375,168.750 58.203 L 169.727 57.890 168.750 57.879 C 168.213 57.873,167.422 58.018,166.992 58.203 M328.546 58.471 C 328.530 58.726,330.996 61.407,334.028 64.428 C 339.530 69.912,341.166 71.388,338.293 68.277 C 337.458 67.372,336.877 66.466,337.002 66.263 C 337.128 66.061,337.053 66.005,336.836 66.139 C 336.619 66.273,336.034 65.948,335.536 65.418 C 335.037 64.887,334.740 64.453,334.874 64.453 C 335.009 64.453,334.671 63.970,334.123 63.379 C 333.576 62.788,332.992 62.305,332.827 62.305 C 332.404 62.305,329.037 59.158,328.785 58.528 C 328.650 58.191,328.566 58.171,328.546 58.471 M163.359 58.979 C 162.650 59.147,161.947 59.413,161.797 59.571 C 161.492 59.889,163.821 59.450,165.039 58.958 C 166.028 58.560,165.081 58.571,163.359 58.979 M232.422 58.926 C 232.744 59.118,233.711 59.389,234.570 59.528 C 235.553 59.688,235.915 59.652,235.547 59.433 C 235.225 59.241,234.258 58.971,233.398 58.831 C 232.416 58.672,232.053 58.707,232.422 58.926 M156.309 61.001 C 154.301 61.640,152.727 62.232,152.811 62.317 C 152.939 62.444,159.853 60.509,161.133 59.987 C 162.738 59.332,159.252 60.065,156.309 61.001 M237.109 60.158 C 240.184 61.200,244.682 62.480,244.811 62.350 C 245.011 62.150,237.392 59.757,236.683 59.796 C 236.380 59.813,236.572 59.976,237.109 60.158 M150.977 62.779 C 150.547 62.882,150.020 63.145,149.805 63.363 C 149.541 63.631,149.731 63.667,150.391 63.473 C 152.413 62.880,152.886 62.319,150.977 62.779 M245.703 62.838 C 246.654 63.404,248.299 63.816,247.852 63.376 C 247.637 63.164,246.934 62.878,246.289 62.740 C 245.524 62.576,245.321 62.610,245.703 62.838 M147.266 64.157 C 143.463 65.842,142.146 66.406,142.017 66.406 C 140.857 66.406,122.656 76.177,122.656 76.800 C 122.656 77.027,123.773 76.432,126.758 74.615 C 130.175 72.535,139.434 67.916,143.945 66.042 C 149.385 63.782,149.505 63.725,148.828 63.725 C 148.506 63.725,147.803 63.919,147.266 64.157 M248.470 63.822 C 248.804 64.130,254.803 66.421,254.933 66.291 C 255.093 66.131,249.194 63.664,248.665 63.669 C 248.468 63.670,248.381 63.740,248.470 63.822 M255.469 66.578 C 255.469 66.745,257.198 67.583,260.449 68.992 C 261.147 69.294,261.719 69.460,261.719 69.359 C 261.719 69.192,259.990 68.354,256.738 66.946 C 256.040 66.643,255.469 66.478,255.469 66.578 M263.672 70.470 C 263.672 70.557,264.946 71.281,266.504 72.078 C 283.264 80.659,297.883 92.819,312.049 109.962 C 317.282 116.294,324.128 127.359,328.966 137.305 C 330.639 140.742,332.013 143.367,332.019 143.138 C 332.026 142.909,330.372 139.394,328.344 135.326 C 314.472 107.498,294.416 86.807,266.712 71.740 C 264.151 70.347,263.672 70.147,263.672 70.470 M340.299 70.694 C 340.452 71.142,344.940 76.497,346.777 78.423 C 347.476 79.155,348.051 79.871,348.056 80.014 C 348.061 80.157,348.632 80.924,349.325 81.720 C 350.019 82.516,350.992 83.746,351.488 84.454 C 353.841 87.812,356.338 91.277,356.853 91.899 C 357.166 92.277,357.422 92.649,357.422 92.724 C 357.422 92.799,358.285 94.169,359.339 95.769 C 361.399 98.893,364.916 104.872,367.112 108.984 C 368.530 111.641,369.411 112.897,368.892 111.523 C 368.729 111.094,368.369 110.303,368.090 109.766 C 367.811 109.229,367.582 108.520,367.581 108.192 C 367.579 107.863,367.242 107.352,366.831 107.056 C 366.400 106.745,366.147 106.191,366.233 105.745 C 366.315 105.320,366.269 105.086,366.130 105.224 C 365.789 105.565,364.459 103.493,364.456 102.614 C 364.454 102.225,364.277 102.016,364.063 102.148 C 363.848 102.281,363.672 102.116,363.672 101.781 C 363.672 101.446,363.513 101.172,363.319 101.172 C 363.126 101.172,362.795 100.688,362.584 100.098 C 362.374 99.507,361.823 98.594,361.361 98.070 C 360.899 97.545,360.597 96.917,360.690 96.674 C 360.783 96.432,360.511 96.015,360.085 95.749 C 359.658 95.483,359.403 95.021,359.518 94.723 C 359.639 94.408,359.407 94.079,358.964 93.939 C 358.277 93.721,358.033 93.287,358.153 92.492 C 358.176 92.337,357.832 92.016,357.388 91.779 C 356.926 91.531,356.671 91.108,356.793 90.790 C 356.917 90.469,356.771 90.234,356.447 90.234 C 356.139 90.234,355.683 89.839,355.434 89.355 C 355.184 88.872,354.632 88.094,354.207 87.627 C 353.782 87.159,353.542 86.601,353.675 86.387 C 353.807 86.173,353.375 85.612,352.714 85.142 C 352.053 84.671,351.593 84.076,351.692 83.820 C 351.790 83.563,351.363 82.949,350.743 82.455 C 350.123 81.961,349.702 81.416,349.809 81.243 C 349.916 81.070,349.303 80.265,348.447 79.454 C 347.591 78.643,346.974 77.896,347.075 77.795 C 347.176 77.694,346.381 76.770,345.309 75.742 C 344.237 74.713,343.359 73.713,343.359 73.519 C 343.359 73.142,340.729 70.313,340.378 70.313 C 340.263 70.313,340.228 70.484,340.299 70.694 M54.590 73.236 C 53.999 73.756,53.516 74.420,53.516 74.712 C 53.516 75.315,51.271 77.734,50.712 77.734 C 50.510 77.734,50.453 77.910,50.586 78.125 C 50.719 78.340,50.631 78.516,50.391 78.516 C 50.150 78.516,50.046 78.665,50.159 78.848 C 50.272 79.030,49.668 79.764,48.817 80.478 C 47.967 81.192,47.351 81.856,47.450 81.955 C 47.785 82.290,46.850 83.594,46.275 83.594 C 45.961 83.594,45.681 83.770,45.654 83.984 C 45.627 84.199,45.562 84.551,45.508 84.766 C 45.454 84.980,45.388 85.320,45.361 85.521 C 45.334 85.721,44.961 85.996,44.531 86.133 C 44.102 86.269,43.750 86.720,43.750 87.136 C 43.750 87.551,43.571 87.891,43.353 87.891 C 43.135 87.891,42.666 88.498,42.312 89.241 C 41.958 89.984,41.538 90.511,41.380 90.413 C 41.221 90.315,40.907 90.765,40.682 91.412 C 40.456 92.059,40.000 92.692,39.669 92.820 C 39.338 92.947,39.162 93.204,39.278 93.392 C 39.485 93.727,37.975 96.165,37.402 96.419 C 37.241 96.491,37.109 96.809,37.109 97.126 C 37.109 97.462,36.921 97.586,36.658 97.424 C 36.360 97.239,36.314 97.318,36.523 97.655 C 36.721 97.976,36.571 98.360,36.118 98.692 C 35.722 98.982,35.563 99.221,35.765 99.225 C 35.975 99.228,35.965 99.354,35.742 99.518 C 35.527 99.676,35.019 100.459,34.613 101.258 C 34.206 102.058,33.723 102.619,33.538 102.505 C 33.354 102.391,33.203 102.572,33.203 102.907 C 33.203 103.242,33.020 103.516,32.795 103.516 C 32.571 103.516,32.430 103.735,32.481 104.004 C 32.637 104.813,32.002 106.278,31.603 106.031 C 31.398 105.905,31.256 105.946,31.287 106.123 C 31.425 106.921,31.216 107.447,30.850 107.221 C 30.630 107.085,30.489 107.118,30.536 107.295 C 30.677 107.815,30.054 109.375,29.707 109.375 C 29.531 109.375,29.259 109.771,29.102 110.254 C 28.945 110.737,28.770 111.265,28.715 111.426 C 28.659 111.587,28.591 111.956,28.564 112.245 C 28.538 112.534,28.164 113.176,27.734 113.672 C 27.305 114.167,26.953 114.897,26.953 115.294 C 26.953 115.691,26.777 116.016,26.563 116.016 C 26.348 116.016,26.172 116.279,26.172 116.602 C 26.172 116.924,25.996 117.188,25.781 117.188 C 25.566 117.188,25.391 117.637,25.391 118.187 C 25.391 118.737,25.224 119.084,25.020 118.958 C 24.816 118.831,24.527 119.376,24.379 120.168 C 24.230 120.959,23.871 122.063,23.580 122.620 C 23.290 123.177,23.051 123.838,23.049 124.089 C 23.048 124.339,22.862 124.606,22.635 124.682 C 22.408 124.757,22.178 125.079,22.123 125.398 C 21.912 126.615,21.418 127.734,21.091 127.734 C 20.904 127.734,20.633 128.524,20.488 129.488 C 20.343 130.453,20.089 131.158,19.922 131.055 C 19.755 130.952,19.501 131.652,19.357 132.612 C 19.213 133.572,18.930 134.459,18.727 134.584 C 18.525 134.709,18.359 135.153,18.359 135.570 C 18.359 135.987,18.184 136.328,17.969 136.328 C 17.754 136.328,17.578 136.778,17.578 137.328 C 17.578 137.979,17.422 138.231,17.131 138.051 C 16.822 137.860,16.745 138.097,16.883 138.818 C 16.993 139.393,16.931 139.956,16.744 140.071 C 16.558 140.186,16.406 140.710,16.406 141.234 C 16.406 141.758,16.230 142.188,16.016 142.188 C 15.801 142.188,15.625 142.700,15.625 143.327 C 15.625 143.953,15.445 144.526,15.225 144.599 C 15.005 144.673,14.719 145.610,14.590 146.683 C 14.460 147.755,14.158 148.757,13.919 148.910 C 13.600 149.112,13.602 149.306,13.929 149.632 C 14.411 150.114,14.540 149.846,15.060 147.278 C 15.210 146.534,15.466 145.655,15.627 145.325 C 15.788 144.996,16.762 142.126,17.791 138.947 C 18.820 135.768,19.869 132.768,20.122 132.280 C 20.375 131.792,20.702 130.915,20.849 130.331 C 20.996 129.746,21.638 128.128,22.277 126.734 C 22.915 125.340,23.437 124.125,23.437 124.034 C 23.438 123.944,24.668 121.314,26.172 118.191 C 27.676 115.068,28.906 112.349,28.906 112.148 C 28.906 111.948,29.038 111.725,29.199 111.654 C 29.360 111.582,29.861 110.820,30.311 109.961 C 31.952 106.829,33.608 103.868,34.566 102.350 C 35.106 101.496,35.547 100.618,35.547 100.398 C 35.547 100.179,35.723 100.000,35.938 100.000 C 36.152 100.000,36.328 99.812,36.328 99.583 C 36.328 99.354,36.768 98.590,37.305 97.886 C 37.842 97.182,38.281 96.508,38.281 96.389 C 38.281 96.015,43.350 88.654,46.420 84.570 C 49.516 80.451,51.351 78.192,54.395 74.748 C 55.415 73.593,56.250 72.562,56.250 72.457 C 56.250 72.037,55.610 72.337,54.590 73.236 M118.945 79.005 C 115.305 81.396,109.766 85.465,109.766 85.748 C 109.766 85.855,111.040 85.005,112.598 83.859 C 114.155 82.714,116.836 80.843,118.555 79.702 C 120.273 78.561,121.847 77.476,122.051 77.290 C 122.911 76.509,121.878 77.079,118.945 79.005 M107.031 87.744 C 93.083 99.364,83.580 110.342,74.612 125.191 C 73.087 127.716,71.911 129.853,71.998 129.941 C 72.085 130.028,73.070 128.516,74.186 126.582 C 81.383 114.111,92.531 100.685,103.608 91.145 C 108.804 86.669,109.592 85.961,109.375 85.957 C 109.268 85.956,108.213 86.760,107.031 87.744 M370.028 114.355 C 370.112 114.517,370.462 115.264,370.804 116.016 C 371.147 116.768,372.204 119.053,373.153 121.094 C 374.102 123.135,375.464 126.246,376.180 128.008 C 377.359 130.910,378.125 131.784,378.125 130.227 C 378.125 129.905,377.970 129.737,377.780 129.855 C 377.417 130.079,376.777 128.729,376.315 126.762 C 376.164 126.119,375.813 125.366,375.535 125.088 C 375.043 124.596,374.225 122.172,374.221 121.191 C 374.220 120.923,374.045 120.703,373.832 120.703 C 373.619 120.703,372.749 119.209,371.897 117.383 C 371.045 115.557,370.242 114.063,370.112 114.063 C 369.982 114.063,369.944 114.194,370.028 114.355 M69.846 133.691 C 67.455 138.368,66.758 139.936,66.974 140.151 C 67.080 140.257,67.333 139.901,67.538 139.362 C 67.743 138.823,68.805 136.601,69.897 134.425 C 70.989 132.249,71.795 130.469,71.688 130.469 C 71.581 130.469,70.752 131.919,69.846 133.691 M377.734 131.738 C 377.735 131.792,378.368 133.594,379.141 135.742 C 381.343 141.856,383.355 148.658,384.832 154.984 C 385.218 156.635,385.938 156.920,385.938 155.423 C 385.938 154.993,385.762 154.750,385.547 154.883 C 385.314 155.026,385.156 154.561,385.156 153.734 C 385.156 152.969,384.980 152.344,384.766 152.344 C 384.551 152.344,384.375 151.739,384.375 151.000 C 384.375 150.260,384.185 149.538,383.953 149.395 C 383.720 149.251,383.632 148.728,383.757 148.232 C 383.882 147.731,383.794 147.267,383.557 147.188 C 383.323 147.110,383.103 146.568,383.069 145.984 C 383.036 145.400,382.876 144.922,382.715 144.922 C 382.554 144.922,382.422 144.493,382.422 143.968 C 382.422 143.444,382.245 142.906,382.030 142.773 C 381.814 142.639,381.752 142.075,381.891 141.519 C 382.069 140.811,382.011 140.591,381.698 140.785 C 381.398 140.970,381.250 140.660,381.250 139.844 C 381.250 139.131,381.088 138.726,380.859 138.867 C 380.639 139.004,380.469 138.684,380.469 138.132 C 380.469 137.595,380.292 137.046,380.077 136.913 C 379.861 136.780,379.799 136.216,379.938 135.660 C 380.103 135.006,380.049 134.737,379.787 134.900 C 379.551 135.045,379.165 134.416,378.863 133.395 C 378.468 132.056,377.734 130.978,377.734 131.738 M66.069 141.450 C 65.872 141.963,65.095 143.877,64.343 145.703 C 63.141 148.622,60.857 154.972,59.776 158.398 C 58.794 161.508,56.992 169.214,57.147 169.638 C 57.243 169.902,57.453 169.414,57.613 168.555 C 58.639 163.037,62.581 150.614,65.286 144.368 C 66.116 142.452,66.713 140.801,66.612 140.700 C 66.511 140.599,66.267 140.937,66.069 141.450 M332.226 144.336 C 332.396 144.766,333.229 146.963,334.077 149.219 C 335.555 153.150,336.343 154.798,335.758 152.734 C 335.170 150.661,332.680 144.317,332.308 143.945 C 332.046 143.685,332.019 143.814,332.226 144.336 M13.703 150.707 C 13.686 150.988,13.496 151.109,13.281 150.977 C 13.053 150.836,12.891 151.233,12.891 151.930 C 12.891 152.587,13.063 153.125,13.274 153.125 C 13.743 153.125,14.215 151.396,13.936 150.700 C 13.772 150.292,13.728 150.293,13.703 150.707 M12.744 154.117 C 12.610 154.466,12.500 155.176,12.500 155.696 C 12.500 156.216,12.324 156.641,12.109 156.641 C 11.895 156.641,11.719 157.442,11.719 158.421 C 11.719 159.509,11.567 160.108,11.328 159.961 C 10.842 159.661,10.824 160.934,11.303 161.692 C 11.562 162.100,11.726 161.838,11.913 160.715 C 12.054 159.871,12.445 157.989,12.781 156.533 C 13.342 154.100,13.320 152.616,12.744 154.117 M336.079 154.590 C 336.937 157.615,337.667 159.729,337.805 159.590 C 338.008 159.388,336.339 153.906,336.074 153.906 C 335.970 153.906,335.972 154.214,336.079 154.590 M385.559 157.617 C 385.559 158.047,385.814 159.453,386.125 160.742 C 386.436 162.031,386.697 163.647,386.705 164.332 C 386.712 165.018,386.897 165.689,387.116 165.824 C 387.334 165.959,387.412 166.233,387.288 166.433 C 387.164 166.633,387.221 166.797,387.413 166.797 C 387.605 166.797,387.789 166.050,387.821 165.137 C 387.864 163.936,387.775 163.639,387.501 164.063 C 387.226 164.487,387.120 164.144,387.115 162.816 C 387.112 161.808,386.934 160.875,386.719 160.742 C 386.504 160.609,386.325 159.940,386.322 159.254 C 386.319 158.569,386.146 157.744,385.938 157.422 C 385.624 156.937,385.559 156.970,385.559 157.617 M337.891 160.271 C 337.891 160.482,338.462 162.867,340.158 169.727 C 340.370 170.586,340.562 170.965,340.585 170.570 C 340.628 169.797,338.377 160.513,338.073 160.209 C 337.973 160.108,337.891 160.136,337.891 160.271 M10.790 163.101 C 10.656 163.450,10.547 164.425,10.547 165.266 C 10.547 166.108,10.359 166.797,10.128 166.797 C 9.898 166.797,9.742 167.192,9.781 167.676 C 9.934 169.561,9.756 170.744,9.358 170.497 C 9.089 170.331,8.977 171.024,9.029 172.525 C 9.072 173.779,8.964 175.755,8.789 176.917 C 8.578 178.315,8.603 178.946,8.864 178.785 C 9.081 178.651,9.384 177.261,9.538 175.697 C 9.810 172.938,9.974 171.754,10.928 165.683 C 11.362 162.922,11.301 161.771,10.790 163.101 M387.704 169.336 C 388.041 173.110,388.326 174.609,388.706 174.609 C 388.902 174.609,389.063 174.082,389.063 173.438 C 389.063 172.793,388.887 172.266,388.672 172.266 C 388.457 172.266,388.269 171.431,388.254 170.410 C 388.239 169.390,388.062 168.203,387.861 167.773 C 387.609 167.236,387.561 167.724,387.704 169.336 M56.428 172.053 C 56.278 173.049,56.244 173.952,56.351 174.060 C 56.459 174.167,56.669 173.440,56.818 172.443 C 56.968 171.447,57.002 170.544,56.895 170.436 C 56.787 170.329,56.577 171.056,56.428 172.053 M340.868 173.242 C 341.266 176.573,341.801 178.287,341.538 175.391 C 341.411 173.994,341.156 172.500,340.971 172.070 C 340.758 171.575,340.720 172.003,340.868 173.242 M55.859 174.642 C 55.859 174.731,55.507 177.529,55.078 180.859 C 54.649 184.189,54.322 187.969,54.351 189.258 C 54.397 191.267,54.450 191.071,54.727 187.891 C 54.904 185.850,55.330 182.096,55.674 179.549 C 56.018 177.003,56.200 174.820,56.079 174.699 C 55.958 174.578,55.859 174.552,55.859 174.642 M388.734 176.807 C 388.654 178.879,389.060 180.907,389.501 180.635 C 389.962 180.350,389.941 177.734,389.478 177.734 C 389.277 177.734,389.041 177.163,388.954 176.465 C 388.814 175.330,388.790 175.366,388.734 176.807 M163.672 177.652 C 163.672 177.888,163.985 178.310,164.367 178.591 C 166.629 180.253,170.051 185.475,171.657 189.715 C 172.217 191.193,172.556 191.783,172.419 191.038 C 171.743 187.379,163.672 175.027,163.672 177.652 M341.876 179.102 C 341.870 179.746,342.002 181.152,342.170 182.227 C 342.468 184.140,342.474 184.148,342.503 182.617 C 342.520 181.758,342.388 180.352,342.210 179.492 C 341.933 178.154,341.885 178.098,341.876 179.102 M8.594 180.990 C 8.594 181.563,8.447 182.031,8.267 182.031 C 8.088 182.031,7.903 183.086,7.856 184.375 C 7.810 185.664,7.938 186.719,8.142 186.719 C 8.556 186.719,9.206 180.560,8.832 180.186 C 8.701 180.055,8.594 180.417,8.594 180.990 M250.781 181.763 C 250.781 181.830,251.353 182.401,252.051 183.032 L 253.320 184.180 252.173 182.910 C 251.104 181.727,250.781 181.461,250.781 181.763 M389.498 186.523 C 389.480 188.457,389.635 190.303,389.844 190.625 C 390.104 191.028,390.212 190.236,390.189 188.086 C 390.141 183.504,389.539 182.144,389.498 186.523 M342.910 195.898 C 343.026 204.965,342.911 209.063,342.402 214.004 C 342.041 217.517,341.845 220.490,341.966 220.612 C 342.088 220.734,342.189 220.584,342.191 220.280 C 342.194 219.976,342.454 217.441,342.770 214.648 C 343.367 209.368,343.542 189.932,343.026 186.133 C 342.880 185.059,342.828 189.453,342.910 195.898 M7.668 193.067 C 7.474 196.340,7.474 201.488,7.668 204.981 L 8.008 211.133 8.116 205.176 C 8.175 201.899,8.175 196.538,8.116 193.262 L 8.008 187.305 7.668 193.067 M54.068 199.023 C 54.068 202.891,54.127 204.420,54.198 202.422 C 54.269 200.423,54.268 197.259,54.197 195.390 C 54.125 193.521,54.067 195.156,54.068 199.023 M172.711 192.969 C 172.705 193.291,172.945 195.313,173.246 197.461 L 173.792 201.367 173.579 197.942 C 173.396 194.993,172.746 191.270,172.711 192.969 M173.113 202.709 C 172.602 213.142,165.561 221.812,153.125 227.318 C 152.178 227.738,152.183 227.744,153.308 227.518 C 162.626 225.652,174.232 211.318,173.329 202.792 L 173.178 201.367 173.113 202.709 M54.331 209.603 C 54.350 211.089,54.511 213.184,54.689 214.258 C 54.906 215.568,54.943 214.731,54.802 211.719 C 54.566 206.718,54.278 205.421,54.331 209.603 M389.751 207.813 C 389.593 208.350,389.477 210.283,389.494 212.109 C 389.519 214.882,389.585 215.217,389.895 214.141 C 390.099 213.432,390.215 211.499,390.153 209.844 C 390.075 207.785,389.948 207.144,389.751 207.813 M7.813 214.063 C 7.813 215.365,7.986 216.406,8.203 216.406 C 8.418 216.406,8.594 217.139,8.594 218.034 C 8.594 218.929,8.703 219.552,8.837 219.418 C 9.208 219.047,8.571 211.719,8.167 211.719 C 7.972 211.719,7.813 212.773,7.813 214.063 M55.128 217.269 C 55.065 218.613,55.976 224.614,56.123 223.828 C 56.184 223.506,55.996 221.660,55.705 219.727 C 55.415 217.793,55.155 216.687,55.128 217.269 M388.892 219.428 C 388.766 220.667,388.498 222.734,388.296 224.023 C 387.681 227.953,387.445 231.543,387.858 230.664 C 388.061 230.234,388.239 229.048,388.254 228.027 C 388.269 226.980,388.464 226.172,388.702 226.172 C 388.933 226.172,389.091 225.601,389.053 224.902 C 388.908 222.259,389.068 220.660,389.453 220.898 C 389.691 221.046,389.844 220.454,389.844 219.382 C 389.844 216.788,389.156 216.821,388.892 219.428 M8.777 221.719 C 8.941 222.772,9.055 224.688,9.029 225.977 C 8.996 227.641,9.094 228.151,9.368 227.734 C 9.646 227.313,9.755 227.772,9.760 229.371 C 9.763 230.594,9.941 231.703,10.156 231.836 C 10.371 231.969,10.550 232.726,10.553 233.519 C 10.556 234.312,10.742 235.225,10.966 235.547 C 11.415 236.192,11.186 233.260,10.540 230.078 C 9.996 227.402,9.375 222.842,9.375 221.530 C 9.375 220.886,9.173 220.234,8.927 220.082 C 8.599 219.879,8.559 220.316,8.777 221.719 M341.203 223.145 C 340.903 225.377,338.943 234.519,338.294 236.716 C 337.863 238.176,337.777 238.916,338.073 238.619 C 338.247 238.446,340.182 230.700,340.988 226.953 C 341.508 224.532,341.912 221.094,341.675 221.094 C 341.567 221.094,341.355 222.017,341.203 223.145 M56.335 225.586 C 56.331 226.230,56.469 227.197,56.641 227.734 L 56.953 228.711 56.946 227.734 C 56.942 227.197,56.805 226.230,56.641 225.586 L 56.342 224.414 56.335 225.586 M149.414 228.125 L 148.242 228.423 149.414 228.442 C 150.059 228.452,150.938 228.310,151.367 228.125 L 152.148 227.789 151.367 227.808 C 150.938 227.818,150.059 227.961,149.414 228.125 M143.272 228.802 C 144.191 228.885,145.597 228.884,146.397 228.800 C 147.197 228.716,146.445 228.648,144.727 228.650 C 143.008 228.651,142.353 228.720,143.272 228.802 M57.062 229.225 C 57.011 230.075,58.681 236.762,58.892 236.551 C 58.999 236.443,58.777 235.075,58.399 233.510 C 57.541 229.965,57.102 228.559,57.062 229.225 M387.086 232.106 C 387.012 233.742,384.774 244.638,384.355 245.405 C 384.151 245.778,383.984 246.406,383.984 246.800 C 383.984 247.194,383.740 248.295,383.442 249.247 C 381.539 255.322,381.374 256.070,382.031 255.664 C 382.246 255.531,382.422 254.983,382.422 254.446 C 382.422 253.895,382.592 253.575,382.813 253.711 C 383.049 253.857,383.203 253.317,383.203 252.344 C 383.203 251.235,383.342 250.821,383.650 251.012 C 383.960 251.203,384.036 250.966,383.898 250.244 C 383.788 249.670,383.851 249.106,384.037 248.991 C 384.223 248.876,384.375 248.265,384.375 247.633 C 384.375 247.001,384.551 246.484,384.766 246.484 C 384.980 246.484,385.156 245.869,385.156 245.117 C 385.156 244.365,385.320 243.750,385.519 243.750 C 385.719 243.750,385.886 243.179,385.890 242.480 C 385.904 240.501,386.380 237.876,386.691 238.069 C 386.845 238.164,387.012 237.328,387.062 236.211 C 387.112 235.094,387.319 234.121,387.522 234.049 C 388.013 233.876,387.996 232.142,387.500 231.836 C 387.285 231.703,387.099 231.825,387.086 232.106 M270.020 233.398 C 270.025 234.258,270.105 234.563,270.198 234.077 C 270.292 233.592,270.288 232.888,270.190 232.515 C 270.092 232.142,270.016 232.539,270.020 233.398 M59.011 237.359 C 58.864 239.821,69.674 266.793,70.480 265.976 C 70.565 265.891,69.775 264.063,68.724 261.914 C 65.527 255.373,61.940 246.324,60.364 240.820 C 59.584 238.097,59.048 236.726,59.011 237.359 M10.938 238.053 C 10.938 238.358,11.131 238.671,11.367 238.750 C 11.604 238.829,11.797 239.547,11.797 240.345 C 11.797 241.144,11.955 241.797,12.148 241.797 C 12.342 241.797,12.500 242.402,12.500 243.141 C 12.500 243.880,12.664 244.587,12.865 244.711 C 13.066 244.835,13.139 245.592,13.028 246.394 C 12.875 247.495,12.928 247.708,13.243 247.266 C 13.569 246.808,13.661 247.000,13.666 248.145 C 13.669 248.950,13.848 249.609,14.063 249.609 C 14.277 249.609,14.453 250.126,14.453 250.758 C 14.453 251.390,14.648 252.027,14.886 252.174 C 15.340 252.455,15.123 250.755,14.458 248.828 C 14.272 248.291,13.649 245.742,13.072 243.164 C 12.495 240.586,11.960 238.257,11.883 237.988 C 11.691 237.318,10.938 237.370,10.938 238.053 M336.739 241.817 C 336.272 243.355,335.970 244.694,336.069 244.793 C 336.167 244.891,336.635 243.719,337.109 242.188 C 337.583 240.656,337.885 239.317,337.780 239.212 C 337.675 239.107,337.206 240.279,336.739 241.817 M335.335 246.289 C 335.019 247.491,331.503 255.936,329.358 260.645 C 328.698 262.095,328.248 263.281,328.359 263.281 C 328.899 263.281,336.069 246.271,335.817 245.589 C 335.722 245.329,335.504 245.645,335.335 246.289 M14.844 253.516 C 14.844 253.945,15.012 254.297,15.219 254.297 C 15.425 254.297,15.793 255.044,16.037 255.957 C 16.280 256.870,16.647 257.936,16.852 258.325 C 17.057 258.715,17.110 259.396,16.969 259.839 C 16.798 260.378,16.857 260.556,17.146 260.377 C 17.427 260.204,17.578 260.537,17.578 261.328 C 17.578 262.041,17.740 262.446,17.969 262.305 C 18.184 262.172,18.381 262.425,18.408 262.868 C 18.435 263.310,18.501 263.848,18.555 264.063 C 18.608 264.277,18.674 264.815,18.701 265.257 C 18.728 265.700,18.926 265.953,19.141 265.820 C 19.370 265.678,19.531 266.098,19.531 266.839 C 19.531 267.532,19.646 267.984,19.786 267.844 C 20.198 267.432,21.130 269.584,20.880 270.372 C 20.754 270.769,20.838 271.094,21.067 271.094 C 21.297 271.094,21.484 271.357,21.484 271.680 C 21.484 272.002,21.640 272.266,21.829 272.266 C 22.227 272.266,22.763 273.739,22.687 274.622 C 22.659 274.952,22.948 275.567,23.330 275.990 C 24.601 277.397,25.276 279.076,25.367 281.055 C 25.397 281.705,25.466 281.738,25.781 281.250 C 26.118 280.729,26.164 280.729,26.196 281.250 C 26.312 283.148,27.234 285.270,27.793 284.925 C 27.976 284.812,28.147 284.994,28.174 285.329 C 28.201 285.663,28.267 286.113,28.320 286.328 C 28.374 286.543,28.440 286.905,28.467 287.132 C 28.494 287.360,28.654 287.461,28.823 287.356 C 28.993 287.251,29.374 287.724,29.671 288.407 C 29.968 289.090,30.322 289.736,30.458 289.844 C 30.882 290.180,32.031 292.861,32.031 293.516 C 32.031 293.860,32.217 294.141,32.445 294.141 C 32.672 294.141,32.733 294.344,32.580 294.592 C 32.423 294.845,32.471 294.937,32.689 294.803 C 33.168 294.507,34.861 297.419,34.465 297.857 C 34.308 298.030,34.398 298.047,34.664 297.893 C 34.981 297.711,35.387 298.129,35.836 299.100 C 36.214 299.917,36.732 300.807,36.986 301.077 C 37.241 301.346,37.560 301.918,37.696 302.346 C 37.832 302.774,38.118 303.125,38.331 303.125 C 38.544 303.125,38.626 303.274,38.513 303.456 C 38.400 303.639,38.661 304.166,39.091 304.628 C 39.522 305.091,39.749 305.469,39.596 305.469 C 39.442 305.469,39.730 305.908,40.234 306.445 C 40.739 306.982,41.010 307.422,40.836 307.422 C 40.662 307.422,40.984 307.788,41.553 308.234 C 42.121 308.681,42.486 309.209,42.363 309.406 C 42.241 309.604,42.328 309.766,42.555 309.766 C 42.783 309.766,42.969 310.040,42.969 310.375 C 42.969 310.710,43.145 310.875,43.359 310.742 C 43.574 310.609,43.772 310.687,43.799 310.914 C 43.900 311.775,43.967 311.937,44.569 312.790 C 44.909 313.273,45.303 313.551,45.445 313.409 C 45.686 313.168,45.820 313.857,45.605 314.234 C 45.552 314.328,46.167 314.992,46.973 315.709 C 47.778 316.426,48.438 317.285,48.438 317.620 C 48.438 317.954,48.877 318.463,49.414 318.750 C 49.951 319.037,50.413 319.419,50.439 319.597 C 50.466 319.776,50.512 320.054,50.540 320.215 C 50.648 320.828,51.804 322.134,52.944 322.932 C 53.596 323.389,54.387 324.260,54.702 324.869 C 55.016 325.478,56.768 327.471,58.594 329.297 C 60.420 331.123,61.963 332.853,62.023 333.141 C 62.139 333.695,64.399 335.742,64.896 335.742 C 65.335 335.742,66.776 337.380,66.578 337.654 C 66.484 337.784,66.527 337.799,66.675 337.687 C 66.822 337.576,67.613 338.139,68.432 338.939 C 69.252 339.738,69.922 340.311,69.922 340.211 C 69.922 340.112,67.152 337.220,63.767 333.785 C 60.382 330.350,57.086 326.919,56.443 326.162 C 55.800 325.405,54.297 323.647,53.103 322.256 C 50.048 318.694,45.955 313.383,42.896 309.008 C 41.459 306.954,40.132 305.098,39.946 304.883 C 39.761 304.668,39.479 304.229,39.320 303.906 C 38.854 302.958,38.125 301.752,37.049 300.141 C 33.087 294.216,28.350 285.266,23.845 275.195 C 22.182 271.478,21.934 270.879,20.290 266.602 C 19.382 264.238,18.498 261.953,18.325 261.523 C 18.152 261.094,17.456 258.940,16.779 256.738 C 15.630 253.002,14.844 251.692,14.844 253.516 M380.300 259.449 C 379.365 262.286,376.244 270.406,374.443 274.686 C 374.109 275.480,373.973 276.215,374.141 276.319 C 374.309 276.423,374.474 276.154,374.506 275.721 C 374.539 275.288,374.942 274.608,375.402 274.209 C 375.965 273.721,376.159 273.230,375.994 272.712 C 375.860 272.288,375.932 271.828,376.156 271.690 C 376.380 271.551,376.563 271.097,376.563 270.680 C 376.563 270.263,376.738 269.922,376.953 269.922 C 377.168 269.922,377.344 269.560,377.344 269.118 C 377.344 268.675,377.503 268.412,377.698 268.532 C 377.893 268.653,377.965 268.419,377.859 268.013 C 377.753 267.608,377.857 267.158,378.091 267.013 C 378.325 266.869,378.516 266.410,378.516 265.993 C 378.516 265.576,378.691 265.234,378.906 265.234 C 379.121 265.234,379.297 264.795,379.297 264.258 C 379.297 263.721,379.456 263.281,379.651 263.281 C 379.846 263.281,379.918 262.950,379.812 262.544 C 379.706 262.139,379.811 261.689,380.044 261.544 C 380.278 261.400,380.469 260.930,380.469 260.501 C 380.469 260.071,380.645 259.828,380.859 259.961 C 381.091 260.104,381.250 259.650,381.250 258.845 C 381.250 258.098,381.420 257.428,381.628 257.357 C 381.838 257.284,381.865 256.999,381.688 256.714 C 381.479 256.379,381.000 257.323,380.300 259.449 M251.456 263.836 C 246.803 265.750,242.823 270.259,241.967 274.587 C 241.859 275.136,242.149 274.619,242.613 273.438 C 244.832 267.782,249.458 264.079,255.273 263.303 L 257.617 262.990 255.664 262.949 C 254.423 262.924,252.889 263.247,251.456 263.836 M258.501 263.167 C 258.987 263.260,259.690 263.257,260.063 263.159 C 260.437 263.061,260.039 262.985,259.180 262.989 C 258.320 262.993,258.015 263.073,258.501 263.167 M326.564 266.096 C 323.661 271.727,317.500 281.614,314.322 285.742 C 313.473 286.845,313.380 287.080,314.004 286.540 C 316.140 284.694,328.624 264.431,328.005 263.813 C 327.910 263.717,327.261 264.744,326.564 266.096 M70.974 267.090 C 71.469 268.462,77.659 278.459,80.463 282.414 C 92.599 299.530,112.072 317.172,127.637 325.151 C 129.898 326.310,128.980 325.499,126.394 324.053 C 105.702 312.481,85.001 291.492,72.902 269.815 C 71.060 266.515,70.462 265.670,70.974 267.090 M241.314 277.451 C 241.083 278.959,241.614 283.624,241.961 283.132 C 242.010 283.064,241.948 281.338,241.824 279.297 C 241.618 275.888,241.576 275.738,241.314 277.451 M371.865 280.197 C 370.904 282.171,369.301 285.325,368.303 287.207 C 365.942 291.659,365.801 292.075,367.104 290.752 C 367.701 290.145,368.439 288.857,368.744 287.891 C 369.406 285.797,370.436 283.848,371.464 282.744 C 371.875 282.303,372.331 281.235,372.477 280.373 C 372.641 279.405,372.857 278.990,373.042 279.289 C 373.225 279.585,373.415 279.185,373.530 278.266 C 373.633 277.437,373.694 276.724,373.665 276.683 C 373.636 276.641,372.826 278.223,371.865 280.197 M309.556 291.699 C 306.033 295.963,296.421 305.825,291.797 309.920 L 289.258 312.168 291.602 310.352 C 295.154 307.599,304.727 298.000,308.743 293.164 C 313.049 287.979,313.426 287.500,313.201 287.500 C 313.105 287.500,311.464 289.390,309.556 291.699 M365.150 293.054 C 364.830 293.544,364.269 294.561,363.902 295.313 L 363.234 296.680 364.040 295.703 C 364.976 294.569,366.085 292.517,365.875 292.307 C 365.796 292.228,365.469 292.564,365.150 293.054 M198.535 294.410 C 198.911 294.508,199.526 294.508,199.902 294.410 C 200.278 294.312,199.971 294.231,199.219 294.231 C 198.467 294.231,198.159 294.312,198.535 294.410 M209.473 294.410 C 209.849 294.508,210.464 294.508,210.840 294.410 C 211.216 294.312,210.908 294.231,210.156 294.231 C 209.404 294.231,209.097 294.312,209.473 294.410 M360.522 300.847 C 359.159 303.067,357.930 304.971,357.791 305.078 C 357.652 305.186,357.052 306.051,356.456 307.001 C 355.861 307.951,355.220 308.917,355.032 309.149 C 353.806 310.658,351.603 313.843,351.711 313.951 C 351.967 314.206,353.117 313.584,352.935 313.289 C 352.833 313.124,353.172 312.533,353.688 311.976 C 354.204 311.419,354.741 310.603,354.881 310.163 C 355.020 309.723,355.297 309.464,355.497 309.588 C 355.696 309.711,355.881 309.626,355.908 309.398 C 355.935 309.171,355.980 308.853,356.008 308.691 C 356.075 308.307,357.434 306.375,358.301 305.432 C 358.677 305.022,358.984 304.413,358.984 304.079 C 358.984 303.744,359.143 303.568,359.337 303.687 C 359.531 303.807,359.889 303.422,360.134 302.832 C 360.853 301.093,361.632 299.818,362.631 298.740 C 363.157 298.172,363.443 297.528,363.284 297.270 C 363.111 296.990,362.033 298.387,360.522 300.847 M287.109 313.539 C 276.731 321.740,261.989 329.797,247.852 334.996 C 245.918 335.707,244.610 336.298,244.944 336.309 C 245.574 336.329,252.460 333.751,255.367 332.406 C 256.278 331.985,257.128 331.641,257.257 331.641 C 259.833 331.641,281.882 318.447,287.891 313.310 C 289.783 311.692,289.248 311.849,287.109 313.539 M349.023 317.074 C 347.949 318.490,346.323 320.507,345.410 321.556 C 343.870 323.326,343.396 324.219,343.998 324.219 C 344.379 324.219,346.093 322.123,346.093 321.655 C 346.094 321.427,346.621 320.851,347.266 320.374 C 347.910 319.898,348.438 319.268,348.438 318.975 C 348.438 318.682,348.974 317.868,349.629 317.167 C 350.949 315.753,351.756 314.441,351.283 314.476 C 351.115 314.488,350.098 315.657,349.023 317.074 M340.503 327.246 C 339.100 328.696,337.545 330.410,337.048 331.055 C 336.550 331.699,335.746 332.547,335.259 332.939 C 334.773 333.330,334.375 333.805,334.375 333.995 C 334.375 334.184,334.787 333.952,335.290 333.478 C 339.482 329.534,341.027 327.924,341.228 327.290 C 341.363 326.865,341.658 326.663,341.923 326.815 C 342.176 326.960,342.249 326.931,342.086 326.752 C 341.923 326.572,342.174 326.017,342.643 325.517 C 343.112 325.018,343.396 324.609,343.275 324.609 C 343.153 324.609,341.906 325.796,340.503 327.246 M129.297 325.971 C 129.297 327.023,154.095 337.575,156.341 337.479 C 156.613 337.467,154.902 336.787,152.539 335.968 C 146.783 333.974,139.543 330.912,133.916 328.091 C 131.376 326.817,129.297 325.863,129.297 325.971 M240.820 337.311 C 239.316 337.807,238.359 338.228,238.694 338.247 C 239.364 338.285,244.141 336.742,244.141 336.488 C 244.141 336.245,243.781 336.334,240.820 337.311 M330.468 337.594 C 326.774 340.842,324.609 342.986,324.609 343.399 C 324.609 343.650,324.974 343.392,325.419 342.826 C 325.864 342.260,326.390 341.797,326.588 341.797 C 326.956 341.797,328.678 340.436,329.450 339.534 C 329.688 339.257,330.404 338.518,331.041 337.893 C 332.620 336.341,332.165 336.103,330.468 337.594 M157.422 337.816 C 158.168 338.288,163.299 339.565,163.528 339.336 C 163.623 339.242,162.595 338.880,161.245 338.532 C 157.136 337.474,156.772 337.406,157.422 337.816 M235.352 338.874 L 233.789 339.406 235.352 339.184 C 237.000 338.950,238.653 338.287,237.500 338.323 C 237.178 338.333,236.211 338.581,235.352 338.874 M164.648 339.826 C 165.398 340.165,167.491 340.387,167.155 340.091 C 167.065 340.012,166.289 339.840,165.430 339.709 C 164.341 339.544,164.104 339.579,164.648 339.826 M228.320 340.444 C 226.172 340.932,224.766 341.345,225.195 341.363 C 226.112 341.399,233.246 339.931,233.530 339.647 C 233.879 339.298,232.292 339.541,228.320 340.444 M167.613 340.397 C 167.936 340.723,176.108 342.196,177.321 342.147 C 177.871 342.125,176.524 341.794,174.329 341.411 C 172.133 341.029,169.672 340.592,168.860 340.441 C 168.048 340.289,167.486 340.269,167.613 340.397 M71.326 341.882 C 72.724 343.510,72.991 343.750,73.410 343.750 C 73.640 343.750,73.828 343.936,73.828 344.164 C 73.828 344.391,73.984 344.481,74.175 344.363 C 74.366 344.245,74.990 344.762,75.562 345.512 C 76.134 346.261,76.867 346.875,77.191 346.875 C 77.552 346.875,77.672 347.064,77.499 347.363 C 77.345 347.632,77.362 347.721,77.538 347.562 C 77.714 347.403,78.094 347.468,78.382 347.707 C 78.768 348.027,78.906 348.027,78.906 347.704 C 78.906 347.463,78.774 347.264,78.613 347.262 C 78.452 347.260,77.705 346.686,76.953 345.987 C 72.910 342.225,69.458 339.707,71.326 341.882 M220.703 341.797 L 219.336 342.085 220.703 342.090 C 221.455 342.093,222.598 341.961,223.242 341.797 L 224.414 341.499 223.242 341.504 C 222.598 341.507,221.455 341.639,220.703 341.797 M179.666 342.576 C 180.406 342.755,183.043 342.993,185.525 343.105 C 188.801 343.254,189.343 343.224,187.500 342.997 C 183.367 342.488,178.142 342.207,179.666 342.576 M213.477 342.622 C 208.017 343.134,207.594 343.310,212.355 343.090 C 214.745 342.980,217.294 342.750,218.019 342.579 L 219.336 342.267 218.164 342.280 C 217.520 342.287,215.410 342.441,213.477 342.622 M195.410 343.651 C 197.505 343.721,200.933 343.721,203.027 343.651 C 205.122 343.580,203.408 343.523,199.219 343.523 C 195.029 343.523,193.315 343.580,195.410 343.651 M321.777 345.229 C 320.070 346.591,319.427 347.656,320.313 347.656 C 320.527 347.656,320.659 347.437,320.605 347.168 C 320.552 346.899,320.741 346.728,321.025 346.787 C 321.310 346.846,321.443 346.733,321.321 346.536 C 321.199 346.338,321.493 346.077,321.975 345.955 C 322.779 345.751,324.074 344.257,323.739 343.921 C 323.660 343.842,322.777 344.431,321.777 345.229 M317.773 348.568 C 316.914 349.248,315.870 350.112,315.454 350.488 C 315.037 350.864,314.554 351.172,314.379 351.172 C 314.205 351.172,314.076 351.479,314.093 351.855 C 314.112 352.264,314.204 352.342,314.321 352.051 C 314.430 351.782,314.723 351.561,314.974 351.559 C 315.225 351.557,315.852 351.021,316.368 350.368 C 316.908 349.684,317.538 349.270,317.853 349.390 C 318.154 349.506,318.293 349.427,318.161 349.214 C 318.030 349.002,318.178 348.828,318.490 348.828 C 318.983 348.828,319.737 347.730,319.443 347.439 C 319.384 347.381,318.633 347.889,317.773 348.568 M79.297 348.322 C 79.297 348.808,81.246 350.636,81.263 350.166 C 81.270 349.967,81.581 350.170,81.954 350.615 C 82.860 351.699,84.766 352.926,84.766 352.425 C 84.766 352.080,84.007 351.450,80.018 348.488 C 79.622 348.193,79.297 348.118,79.297 348.322 M312.364 352.757 C 311.794 353.206,311.342 353.779,311.359 354.032 C 311.381 354.355,311.449 354.347,311.587 354.004 C 311.695 353.735,312.102 353.516,312.491 353.516 C 312.880 353.516,313.308 353.227,313.444 352.874 C 313.820 351.895,313.504 351.861,312.364 352.757 M85.156 352.958 C 85.156 353.324,86.221 354.274,86.414 354.081 C 86.513 353.982,86.912 354.254,87.303 354.685 C 87.693 355.116,88.259 355.469,88.560 355.469 C 88.862 355.469,89.001 355.643,88.870 355.855 C 88.736 356.071,88.882 356.145,89.202 356.022 C 89.558 355.885,89.871 356.112,90.033 356.623 C 90.185 357.101,90.566 357.397,90.948 357.335 C 91.357 357.267,91.553 357.445,91.471 357.813 C 91.400 358.135,91.459 358.281,91.602 358.138 C 91.843 357.896,92.654 358.425,93.986 359.693 C 94.283 359.975,94.702 360.097,94.919 359.963 C 95.135 359.829,95.313 359.888,95.313 360.095 C 95.313 360.301,95.853 360.659,96.514 360.889 C 97.174 361.119,97.616 361.468,97.495 361.664 C 97.374 361.860,97.712 362.104,98.247 362.206 C 99.953 362.532,99.307 361.878,95.801 359.731 C 93.921 358.579,91.504 356.981,90.430 356.179 C 89.355 355.377,88.389 354.746,88.281 354.776 C 88.174 354.806,87.577 354.359,86.955 353.783 C 85.887 352.793,85.156 352.458,85.156 352.958 M308.865 355.183 C 306.822 356.596,306.275 357.820,308.174 356.730 C 308.802 356.369,309.286 355.894,309.248 355.674 C 309.210 355.454,309.443 355.273,309.766 355.273 C 310.347 355.273,311.155 354.384,310.850 354.079 C 310.762 353.992,309.869 354.488,308.865 355.183 M305.461 357.627 C 305.189 357.954,305.080 358.335,305.218 358.473 C 305.356 358.611,305.469 358.524,305.469 358.280 C 305.469 358.037,305.732 357.938,306.055 358.062 C 306.426 358.204,306.641 358.056,306.641 357.659 C 306.641 356.867,306.103 356.853,305.461 357.627 M303.566 358.945 C 303.271 359.132,303.095 359.455,303.175 359.664 C 303.255 359.872,303.659 359.717,304.072 359.318 C 304.844 358.575,304.523 358.339,303.566 358.945 M298.730 361.921 C 296.850 363.099,295.137 364.063,294.922 364.063 C 294.707 364.063,294.545 364.370,294.562 364.746 C 294.581 365.154,294.672 365.233,294.790 364.941 C 294.898 364.673,295.334 364.453,295.759 364.453 C 296.233 364.453,296.425 364.283,296.258 364.012 C 296.092 363.743,296.198 363.643,296.528 363.755 C 296.826 363.857,297.378 363.589,297.754 363.160 C 298.130 362.731,298.443 362.539,298.450 362.733 C 298.457 362.927,298.701 362.772,298.992 362.388 C 299.283 362.004,299.673 361.736,299.858 361.794 C 300.297 361.929,302.734 360.471,302.734 360.072 C 302.734 359.506,302.164 359.769,298.730 361.921 M99.609 362.708 C 99.609 363.024,99.883 363.281,100.218 363.281 C 100.553 363.281,100.731 363.437,100.614 363.627 C 100.496 363.817,100.837 364.057,101.372 364.159 C 102.750 364.422,102.576 363.886,100.977 362.942 C 99.882 362.296,99.609 362.250,99.609 362.708 M104.036 365.483 C 104.036 365.776,104.301 366.016,104.624 366.016 C 104.947 366.016,105.534 366.308,105.929 366.664 C 106.323 367.021,106.774 367.185,106.930 367.028 C 107.241 366.717,105.646 365.374,104.655 365.114 C 104.314 365.024,104.036 365.190,104.036 365.483 M292.383 365.538 C 291.738 365.908,291.152 366.343,291.081 366.504 C 291.009 366.665,290.701 366.797,290.397 366.797 C 290.093 366.797,289.844 366.973,289.844 367.188 C 289.844 367.402,289.580 367.578,289.258 367.578 C 288.936 367.578,288.672 367.773,288.672 368.011 C 288.672 368.248,288.950 368.336,289.290 368.206 C 289.630 368.075,290.079 367.969,290.289 367.969 C 290.499 367.969,290.562 367.793,290.430 367.578 C 290.297 367.363,290.462 367.188,290.797 367.188 C 291.132 367.188,291.406 367.032,291.406 366.842 C 291.406 366.460,292.889 365.897,293.652 365.990 C 293.921 366.023,294.141 365.778,294.141 365.447 C 294.141 364.685,293.841 364.700,292.383 365.538 M107.422 367.383 C 107.422 367.705,107.598 367.969,107.813 367.969 C 108.027 367.969,108.203 367.705,108.203 367.383 C 108.203 367.061,108.027 366.797,107.813 366.797 C 107.598 366.797,107.422 367.061,107.422 367.383 M108.594 367.942 C 108.594 368.172,108.945 368.359,109.375 368.359 C 109.805 368.359,110.156 368.535,110.156 368.750 C 110.156 368.965,110.420 369.141,110.742 369.141 C 111.064 369.141,111.328 369.335,111.328 369.573 C 111.328 369.811,111.592 369.904,111.914 369.781 C 112.236 369.657,112.500 369.726,112.500 369.934 C 112.500 370.142,112.774 370.313,113.109 370.313 C 113.444 370.313,113.609 370.488,113.477 370.703 C 113.339 370.926,113.676 371.094,114.258 371.094 C 114.933 371.094,115.186 371.247,115.001 371.546 C 114.810 371.856,114.987 371.929,115.564 371.778 C 116.027 371.657,116.406 371.717,116.406 371.912 C 116.406 372.106,116.768 372.266,117.211 372.266 C 117.653 372.266,117.906 372.441,117.773 372.656 C 117.641 372.871,117.904 373.047,118.359 373.047 C 118.853 373.047,119.081 373.217,118.926 373.469 C 118.767 373.726,118.950 373.845,119.391 373.772 C 119.790 373.706,120.337 373.790,120.605 373.959 C 120.874 374.127,121.094 374.115,121.094 373.933 C 121.094 373.750,119.292 372.739,117.090 371.687 C 114.888 370.634,112.471 369.393,111.719 368.928 C 109.940 367.829,108.594 367.404,108.594 367.942 M285.645 369.209 C 283.739 370.281,283.032 371.094,284.007 371.094 C 284.235 371.094,284.312 370.918,284.180 370.703 C 284.047 370.488,284.300 370.313,284.743 370.313 C 285.185 370.313,285.547 370.125,285.547 369.896 C 285.547 369.656,285.880 369.584,286.328 369.727 C 286.878 369.901,287.109 369.797,287.109 369.375 C 287.109 369.002,287.331 368.860,287.695 368.999 C 288.066 369.142,288.281 368.994,288.281 368.596 C 288.281 367.787,288.098 367.829,285.645 369.209 M282.302 370.953 C 281.990 371.265,282.343 371.875,282.836 371.875 C 283.038 371.875,283.203 371.611,283.203 371.289 C 283.203 370.685,282.742 370.513,282.302 370.953 M279.688 372.160 C 278.936 372.522,278.232 372.936,278.125 373.079 C 278.018 373.222,277.358 373.463,276.660 373.615 C 275.962 373.766,275.391 374.052,275.391 374.250 C 275.391 374.448,275.039 374.609,274.609 374.609 C 274.175 374.609,273.828 374.870,273.828 375.195 C 273.828 375.518,274.014 375.781,274.242 375.781 C 274.469 375.781,274.547 375.605,274.414 375.391 C 274.281 375.176,274.535 375.000,274.977 375.000 C 275.419 375.000,275.781 374.862,275.781 374.693 C 275.781 374.523,276.089 374.361,276.465 374.332 C 277.633 374.240,279.297 373.478,279.297 373.033 C 279.297 372.801,279.473 372.719,279.688 372.852 C 279.902 372.984,280.078 372.907,280.078 372.679 C 280.078 372.452,280.430 372.266,280.859 372.266 C 281.289 372.266,281.641 372.090,281.641 371.875 C 281.641 371.340,281.282 371.393,279.688 372.160 M121.484 374.200 C 121.484 374.657,124.161 375.970,124.467 375.663 C 124.853 375.277,124.200 374.609,123.438 374.609 C 123.033 374.609,122.594 374.434,122.461 374.219 C 122.154 373.722,121.484 373.710,121.484 374.200 M125.000 375.818 C 125.000 376.013,125.352 376.172,125.781 376.172 C 126.211 376.172,126.563 376.348,126.563 376.563 C 126.563 376.777,126.914 376.953,127.344 376.953 C 127.773 376.953,128.125 377.141,128.125 377.370 C 128.125 377.609,128.458 377.681,128.906 377.539 C 129.354 377.397,129.688 377.469,129.688 377.708 C 129.688 377.937,130.127 378.125,130.664 378.125 C 131.201 378.125,131.641 378.301,131.641 378.516 C 131.641 378.730,132.003 378.906,132.445 378.906 C 132.924 378.906,133.143 379.078,132.987 379.331 C 132.820 379.600,133.061 379.711,133.648 379.636 C 134.155 379.570,134.790 379.653,135.059 379.820 C 135.327 379.987,135.547 379.968,135.547 379.776 C 135.547 379.585,133.745 378.755,131.543 377.932 C 129.341 377.109,127.363 376.314,127.148 376.165 C 126.460 375.688,125.000 375.452,125.000 375.818 M270.898 376.172 C 270.766 376.387,270.316 376.563,269.899 376.563 C 269.482 376.563,269.141 376.826,269.141 377.148 C 269.141 377.471,269.316 377.734,269.531 377.734 C 269.746 377.734,269.922 377.559,269.922 377.344 C 269.922 377.129,270.255 376.953,270.661 376.953 C 271.068 376.953,271.502 376.689,271.626 376.367 C 271.875 375.717,271.279 375.556,270.898 376.172 M266.895 377.747 C 265.999 378.106,265.678 378.906,266.429 378.906 C 266.657 378.906,266.734 378.730,266.602 378.516 C 266.469 378.301,266.678 378.122,267.067 378.119 C 267.455 378.116,268.037 377.943,268.359 377.734 C 269.148 377.225,268.173 377.233,266.895 377.747 M264.242 378.932 C 263.797 379.652,264.387 379.810,265.048 379.148 C 265.594 378.602,265.600 378.516,265.090 378.516 C 264.765 378.516,264.383 378.703,264.242 378.932 M262.109 379.552 C 261.787 379.658,261.172 379.885,260.742 380.058 C 260.313 380.230,258.687 380.764,257.129 381.245 C 254.538 382.045,253.438 382.813,254.883 382.813 C 255.205 382.813,255.469 382.637,255.469 382.422 C 255.469 382.207,255.908 382.031,256.445 382.031 C 256.982 382.031,257.422 381.880,257.422 381.695 C 257.422 381.510,257.861 381.442,258.398 381.545 C 258.968 381.654,259.375 381.550,259.375 381.296 C 259.375 381.056,259.814 380.859,260.352 380.859 C 260.889 380.859,261.328 380.684,261.328 380.469 C 261.328 380.254,261.757 380.078,262.282 380.078 C 262.806 380.078,263.344 379.902,263.477 379.688 C 263.728 379.281,263.116 379.220,262.109 379.552 M135.938 380.101 C 135.938 380.329,136.098 380.415,136.295 380.294 C 136.491 380.173,136.731 380.294,136.827 380.564 C 136.924 380.834,137.132 380.935,137.290 380.788 C 137.449 380.641,137.462 380.333,137.321 380.104 C 136.988 379.565,135.938 379.563,135.938 380.101 M138.421 381.055 C 138.743 381.377,139.107 381.641,139.230 381.641 C 139.353 381.641,139.453 381.377,139.453 381.055 C 139.453 380.722,139.103 380.469,138.644 380.469 C 137.925 380.469,137.900 380.534,138.421 381.055 M140.625 381.641 C 140.625 381.987,141.463 382.207,142.285 382.078 C 142.446 382.052,142.578 382.207,142.578 382.422 C 142.578 382.637,143.105 382.813,143.750 382.813 C 144.395 382.813,144.922 383.007,144.922 383.245 C 144.922 383.512,145.297 383.584,145.898 383.433 C 146.462 383.292,146.875 383.357,146.875 383.586 C 146.875 383.805,147.490 383.984,148.242 383.984 C 148.994 383.984,149.609 384.160,149.609 384.375 C 149.609 384.590,149.785 384.766,150.000 384.766 C 150.563 384.766,150.482 383.986,149.902 383.822 C 149.634 383.745,148.271 383.375,146.875 382.998 C 145.479 382.621,143.583 382.073,142.662 381.781 C 140.661 381.146,140.625 381.144,140.625 381.641 M252.022 382.924 C 251.702 383.311,251.848 383.445,252.658 383.506 C 253.383 383.561,253.545 383.480,253.178 383.247 C 252.729 382.960,252.729 382.874,253.178 382.695 C 253.571 382.539,253.544 382.475,253.075 382.453 C 252.726 382.436,252.252 382.648,252.022 382.924 M247.656 383.984 C 247.334 384.193,246.587 384.366,245.996 384.369 C 245.304 384.373,244.922 384.584,244.922 384.961 C 244.922 385.283,245.186 385.547,245.508 385.547 C 245.830 385.547,246.094 385.371,246.094 385.156 C 246.094 384.941,246.621 384.766,247.266 384.766 C 247.910 384.766,248.438 384.579,248.438 384.352 C 248.438 384.124,248.613 384.047,248.828 384.180 C 249.043 384.312,249.219 384.235,249.219 384.007 C 249.219 383.493,248.434 383.482,247.656 383.984 M151.270 384.627 C 151.646 384.735,151.953 384.986,151.953 385.185 C 151.953 385.384,152.231 385.547,152.572 385.547 C 153.685 385.547,152.899 384.572,151.728 384.500 C 151.100 384.462,150.894 384.519,151.270 384.627 M242.383 385.219 C 241.523 385.424,240.399 385.679,239.885 385.786 C 239.182 385.932,239.061 386.092,239.397 386.428 C 239.732 386.764,239.961 386.758,240.313 386.406 C 240.570 386.148,241.351 385.938,242.047 385.938 C 242.744 385.938,243.424 385.759,243.559 385.541 C 243.694 385.322,243.968 385.245,244.168 385.368 C 244.368 385.492,244.531 385.407,244.531 385.179 C 244.531 384.711,244.514 384.711,242.383 385.219 M154.556 385.571 C 154.784 385.800,155.516 386.002,156.183 386.021 C 156.850 386.040,157.303 386.205,157.190 386.387 C 157.077 386.570,157.337 386.719,157.766 386.719 C 159.393 386.719,158.910 385.986,157.015 385.580 C 154.475 385.035,154.018 385.034,154.556 385.571 M159.863 386.581 C 160.239 386.688,160.547 386.939,160.547 387.138 C 160.547 387.337,160.913 387.500,161.361 387.500 C 162.739 387.500,161.955 386.529,160.517 386.455 C 159.781 386.417,159.487 386.474,159.863 386.581 M236.033 386.588 C 235.763 386.696,235.641 386.946,235.763 387.143 C 236.052 387.610,237.500 387.606,237.500 387.138 C 237.500 386.939,237.808 386.696,238.184 386.597 C 238.560 386.499,238.340 386.412,237.695 386.404 C 237.051 386.396,236.303 386.479,236.033 386.588 M163.867 387.500 C 164.000 387.715,164.450 387.891,164.867 387.891 C 165.284 387.891,165.625 387.715,165.625 387.500 C 165.625 387.285,165.175 387.109,164.625 387.109 C 164.058 387.109,163.730 387.278,163.867 387.500 M232.422 387.500 C 232.422 387.964,233.101 387.964,234.180 387.500 C 234.834 387.219,234.755 387.160,233.691 387.137 C 232.993 387.122,232.422 387.285,232.422 387.500 M167.480 387.774 C 167.749 387.870,167.969 388.111,167.969 388.310 C 167.969 388.509,168.443 388.672,169.023 388.672 C 170.404 388.672,169.728 387.960,168.152 387.753 C 167.514 387.669,167.212 387.679,167.480 387.774 M229.004 387.776 C 227.619 388.042,227.979 388.672,229.515 388.672 C 230.477 388.672,230.818 388.531,230.623 388.215 C 230.431 387.905,230.556 387.841,231.011 388.015 C 231.409 388.168,231.584 388.116,231.443 387.886 C 231.201 387.495,230.600 387.468,229.004 387.776 M171.393 388.558 C 171.879 388.651,172.176 388.891,172.053 389.090 C 171.930 389.290,172.356 389.453,173.001 389.453 C 173.645 389.453,174.270 389.296,174.389 389.103 C 174.694 388.609,173.621 388.272,171.941 388.334 C 171.020 388.369,170.824 388.448,171.393 388.558 M223.926 388.540 C 222.881 388.961,223.516 389.453,225.098 389.447 C 226.236 389.443,226.583 389.331,226.201 389.089 C 225.783 388.824,225.928 388.695,226.787 388.568 C 227.576 388.451,227.386 388.390,226.172 388.371 C 225.205 388.355,224.194 388.432,223.926 388.540 M177.344 389.453 C 177.666 389.661,178.545 389.832,179.297 389.832 C 180.322 389.832,180.518 389.737,180.078 389.453 C 179.756 389.245,178.877 389.074,178.125 389.074 C 177.100 389.074,176.904 389.169,177.344 389.453 M217.188 389.453 C 216.762 389.728,217.082 389.832,218.359 389.832 C 219.326 389.832,220.381 389.661,220.703 389.453 C 221.129 389.178,220.809 389.074,219.531 389.074 C 218.564 389.074,217.510 389.245,217.188 389.453 M181.641 389.706 C 181.641 389.901,182.344 389.993,183.203 389.911 C 184.173 389.818,184.766 389.925,184.766 390.193 C 184.766 390.473,185.891 390.625,187.969 390.625 C 189.919 390.625,191.027 390.485,190.801 390.267 C 190.298 389.782,181.641 389.252,181.641 389.706 M209.375 389.743 C 208.193 389.823,207.051 390.070,206.836 390.293 C 206.567 390.571,207.543 390.621,209.961 390.454 C 211.895 390.321,214.048 390.173,214.746 390.126 C 215.444 390.078,216.016 389.907,216.016 389.746 C 216.016 389.458,213.604 389.457,209.375 389.743 " stroke="none" fill="#5a5a5a" fill-rule="evenodd"></path><path id="path4" d="M201.204 162.250 C 201.294 162.328,204.004 162.479,207.227 162.587 C 210.675 162.701,212.121 162.661,210.742 162.488 C 208.322 162.185,200.916 162.000,201.204 162.250 M197.559 162.776 C 198.042 162.869,198.833 162.869,199.316 162.776 C 199.800 162.683,199.404 162.606,198.438 162.606 C 197.471 162.606,197.075 162.683,197.559 162.776 M194.438 163.167 C 194.924 163.260,195.627 163.257,196.001 163.159 C 196.374 163.061,195.977 162.985,195.117 162.989 C 194.258 162.993,193.952 163.073,194.438 163.167 M214.648 163.281 C 215.293 163.445,216.260 163.579,216.797 163.579 C 217.668 163.579,217.647 163.547,216.602 163.281 C 215.957 163.117,214.990 162.983,214.453 162.983 C 213.582 162.983,213.603 163.015,214.648 163.281 M189.063 164.072 C 188.525 164.259,187.321 164.608,186.386 164.848 C 185.452 165.089,184.755 165.354,184.838 165.437 C 185.001 165.599,191.103 164.102,191.374 163.834 C 191.654 163.555,190.086 163.717,189.063 164.072 M218.750 164.063 C 219.287 164.235,220.078 164.375,220.508 164.375 C 221.126 164.375,221.086 164.310,220.313 164.063 C 219.775 163.890,218.984 163.750,218.555 163.750 C 217.936 163.750,217.977 163.815,218.750 164.063 M225.586 165.930 C 227.949 166.757,230.267 167.642,230.736 167.896 C 231.205 168.151,231.733 168.352,231.908 168.344 C 233.049 168.288,225.107 165.147,222.656 164.685 C 221.904 164.543,223.223 165.103,225.586 165.930 M181.836 166.369 C 179.087 167.376,175.391 169.059,175.391 169.302 C 175.391 169.550,176.131 169.275,178.484 168.152 C 179.468 167.683,181.196 166.996,182.324 166.626 C 183.452 166.256,184.375 165.879,184.375 165.789 C 184.375 165.510,183.859 165.627,181.836 166.369 M171.672 171.342 C 168.469 173.202,163.199 177.001,163.460 177.262 C 163.540 177.343,164.720 176.539,166.081 175.475 C 167.441 174.412,170.005 172.704,171.777 171.679 C 174.567 170.067,175.344 169.531,174.894 169.531 C 174.836 169.531,173.386 170.346,171.672 171.342 M235.547 170.097 C 235.547 170.205,236.074 170.565,236.719 170.898 C 237.363 171.232,237.891 171.417,237.891 171.309 C 237.891 171.202,237.363 170.841,236.719 170.508 C 236.074 170.175,235.547 169.990,235.547 170.097 M239.876 172.788 C 240.716 173.469,243.750 175.384,243.750 175.233 C 243.750 174.977,240.374 172.656,240.001 172.656 C 239.843 172.656,239.787 172.716,239.876 172.788 M246.484 177.561 C 253.592 183.880,259.427 191.203,262.931 198.203 C 264.963 202.262,265.574 203.287,264.892 201.495 C 261.910 193.652,253.030 182.147,245.688 176.617 C 244.680 175.857,245.016 176.256,246.484 177.561 M266.016 204.848 C 266.016 204.936,266.520 206.562,267.137 208.461 C 268.877 213.816,269.920 219.912,270.301 226.953 L 270.651 233.398 270.489 226.758 C 270.316 219.636,269.452 214.367,267.398 207.910 C 266.543 205.224,266.016 204.055,266.016 204.848 M139.323 228.385 C 138.981 228.727,139.040 233.697,139.412 235.938 C 139.616 237.164,139.696 236.249,139.676 232.913 C 139.661 230.283,139.634 228.130,139.616 228.128 C 139.598 228.126,139.466 228.242,139.323 228.385 M269.734 237.402 C 269.580 238.853,268.953 241.973,268.341 244.336 C 266.797 250.299,266.694 250.806,267.397 249.023 C 268.771 245.534,270.895 234.766,270.208 234.766 C 270.101 234.766,269.887 235.952,269.734 237.402 M139.883 238.900 C 139.904 239.526,140.071 240.479,140.254 241.016 C 140.477 241.674,140.512 241.356,140.360 240.039 C 140.106 237.842,139.823 237.167,139.883 238.900 M140.680 243.164 C 140.683 243.594,140.925 244.648,141.218 245.508 L 141.750 247.070 141.523 245.508 C 141.398 244.648,141.155 243.594,140.985 243.164 L 140.675 242.383 140.680 243.164 M141.816 247.535 C 141.764 248.774,146.852 260.938,147.422 260.938 C 147.660 260.938,147.529 260.619,145.731 256.836 C 145.017 255.332,143.848 252.520,143.134 250.586 C 142.420 248.652,141.827 247.280,141.816 247.535 M265.502 253.392 C 264.932 254.828,264.529 256.066,264.607 256.143 C 264.684 256.220,265.216 255.112,265.789 253.680 C 266.363 252.248,266.765 251.010,266.685 250.929 C 266.604 250.848,266.071 251.957,265.502 253.392 M261.704 261.440 C 260.643 263.034,260.508 263.281,260.696 263.281 C 260.989 263.281,262.604 260.912,262.430 260.737 C 262.345 260.652,262.018 260.968,261.704 261.440 M148.092 262.207 C 151.357 268.395,159.032 277.024,165.310 281.565 C 166.937 282.742,165.842 281.619,163.770 279.985 C 159.012 276.234,153.117 269.592,149.749 264.189 C 148.052 261.466,147.102 260.329,148.092 262.207 M166.646 282.493 C 166.912 282.924,171.582 285.965,173.047 286.661 C 173.859 287.047,173.904 287.042,173.312 286.629 C 170.789 284.870,166.452 282.179,166.646 282.493 M239.863 284.395 C 237.522 285.981,237.343 286.254,239.378 285.133 C 240.803 284.348,242.234 283.186,241.747 283.210 C 241.667 283.214,240.819 283.747,239.863 284.395 M235.840 286.745 C 234.266 287.576,233.959 287.927,235.059 287.638 C 235.700 287.469,237.923 285.945,237.500 285.963 C 237.393 285.968,236.646 286.320,235.840 286.745 M175.195 287.891 C 175.840 288.317,176.543 288.667,176.758 288.667 C 176.973 288.667,176.621 288.317,175.977 287.891 C 175.332 287.464,174.629 287.115,174.414 287.115 C 174.199 287.115,174.551 287.464,175.195 287.891 M178.125 289.258 C 178.662 289.565,179.277 289.816,179.492 289.816 C 179.707 289.816,179.443 289.565,178.906 289.258 C 178.369 288.951,177.754 288.700,177.539 288.700 C 177.324 288.700,177.588 288.951,178.125 289.258 M227.839 290.350 C 223.574 292.048,222.585 292.767,226.413 291.386 C 228.989 290.457,232.827 288.709,232.227 288.739 C 232.012 288.749,230.037 289.474,227.839 290.350 M185.547 292.062 C 188.795 293.137,195.535 294.549,197.182 294.500 C 197.765 294.482,196.396 294.140,194.141 293.740 C 191.885 293.339,188.498 292.562,186.615 292.013 C 182.302 290.756,181.685 290.784,185.547 292.062 M220.508 292.784 C 219.648 293.068,219.209 293.310,219.531 293.323 C 219.854 293.337,220.908 293.098,221.875 292.794 C 222.842 292.489,223.281 292.246,222.852 292.255 C 222.422 292.263,221.367 292.501,220.508 292.784 M213.086 294.141 L 211.133 294.409 212.891 294.431 C 213.857 294.443,215.088 294.313,215.625 294.141 C 216.840 293.751,215.924 293.751,213.086 294.141 M201.483 294.822 C 203.266 294.895,206.079 294.894,207.733 294.821 C 209.388 294.748,207.930 294.689,204.492 294.689 C 201.055 294.690,199.701 294.750,201.483 294.822 " stroke="none" fill="#256f91" fill-rule="evenodd"></path></g></svg>